{
  "accessors": [
    {
      "bufferView": 2,
      "componentType": 5126,
      "count": 1984,
      "max": [
        4.0,
        4.0,
        4.0
      ],
      "min": [
        -4.0,
        -4.0,
        -4.0
      ],
      "type": "VEC3"
    },
    {
      "bufferView": 2,
      "byteOffset": 23808,
      "componentType": 5126,
      "count": 1984,
      "max": [
        0.9951847195625305,
        0.9951848387718201,
        0.9951847195625305
      ],
      "min": [
        -0.9951847195625305,
        -0.9951848387718201,
        -0.9951847195625305
      ],
      "type": "VEC3"
    },
    {
      "bufferView": 1,
      "componentType": 5126,
      "count": 1984,
      "max": [
        0.9921875,
        0.4921875
      ],
      "min": [
        0.0078125,
        0.0078125
      ],
      "type": "VEC2"
    },
    {
      "bufferView": 0,
      "componentType": 5125,
      "count": 2880,
      "type": "SCALAR"
    },
    {
      "bufferView": 2,
      "byteOffset": 47616,
      "componentType": 5126,
      "count": 20,
      "max": [
        24.5,
        6.25000029685907e-05,
        24.5
      ],
      "min": [
        -24.25,
        0.0,
        -24.25
      ],
      "type": "VEC3"
    },
    {
      "bufferView": 2,
      "byteOffset": 47856,
      "componentType": 5126,
      "count": 20,
      "max": [
        1.0,
        1.0,
        1.0
      ],
      "min": [
        -1.0,
        0.0,
        -1.0
      ],
      "type": "VEC3"
    },
    {
      "bufferView": 1,
      "byteOffset": 15872,
      "componentType": 5126,
      "count": 20,
      "max": [
        0.50390625,
        0.5078125
      ],
      "min": [
        0.0,
        0.0
      ],
      "type": "VEC2"
    },
    {
      "bufferView": 0,
      "byteOffset": 11520,
      "componentType": 5125,
      "count": 30,
      "type": "SCALAR"
    },
    {
      "bufferView": 2,
      "byteOffset": 48096,
      "componentType": 5126,
      "count": 24,
      "max": [
        6.0625,
        6.25000029685907e-05,
        6.0625
      ],
      "min": [
        -6.0625,
        0.0,
        -6.0625
      ],
      "type": "VEC3"
    },
    {
      "bufferView": 2,
      "byteOffset": 48384,
      "componentType": 5126,
      "count": 24,
      "max": [
        1.0,
        1.0,
        1.0
      ],
      "min": [
        -1.0,
        -1.0,
        -1.0
      ],
      "type": "VEC3"
    },
    {
      "bufferView": 1,
      "byteOffset": 16032,
      "componentType": 5126,
      "count": 24,
      "max": [
        0.37890625,
        0.7578125
      ],
      "min": [
        0.0,
        0.0
      ],
      "type": "VEC2"
    },
    {
      "bufferView": 0,
      "byteOffset": 11640,
      "componentType": 5125,
      "count": 36,
      "type": "SCALAR"
    },
    {
      "bufferView": 2,
      "byteOffset": 48672,
      "componentType": 5126,
      "count": 1104,
      "max": [
        0.5,
        0.5,
        0.5
      ],
      "min": [
        -0.5,
        -0.5,
        -0.5
      ],
      "type": "VEC3"
    },
    {
      "bufferView": 2,
      "byteOffset": 61920,
      "componentType": 5126,
      "count": 1104,
      "max": [
        0.9914448857307434,
        0.9914448857307434,
        0.9914448857307434
      ],
      "min": [
        -0.9914448857307434,
        -0.9914448857307434,
        -0.9914448857307434
      ],
      "type": "VEC3"
    },
    {
      "bufferView": 1,
      "byteOffset": 16224,
      "componentType": 5126,
      "count": 1104,
      "max": [
        0.6871505975723267,
        0.6870450973510742
      ],
      "min": [
        0.001469410490244627,
        0.0
      ],
      "type": "VEC2"
    },
    {
      "bufferView": 0,
      "byteOffset": 11784,
      "componentType": 5125,
      "count": 1584,
      "type": "SCALAR"
    },
    {
      "bufferView": 2,
      "byteOffset": 75168,
      "componentType": 5126,
      "count": 54,
      "max": [
        0.5,
        -0.75,
        0.5
      ],
      "min": [
        -0.5,
        -6.75,
        -0.5
      ],
      "type": "VEC3"
    },
    {
      "bufferView": 2,
      "byteOffset": 75816,
      "componentType": 5126,
      "count": 54,
      "max": [
        0.9965458512306213,
        0.08304549008607864,
        0.9965458512306213
      ],
      "min": [
        -0.9965458512306213,
        -1.0,
        -0.9965458512306213
      ],
      "type": "VEC3"
    },
    {
      "bufferView": 1,
      "byteOffset": 25056,
      "componentType": 5126,
      "count": 54,
      "max": [
        0.25390625,
        0.43879997730255127
      ],
      "min": [
        0.00028688882593996823,
        0.0
      ],
      "type": "VEC2"
    },
    {
      "bufferView": 0,
      "byteOffset": 18120,
      "componentType": 5125,
      "count": 72,
      "type": "SCALAR"
    },
    {
      "bufferView": 2,
      "byteOffset": 76464,
      "componentType": 5126,
      "count": 54,
      "max": [
        0.5,
        -0.75,
        0.5
      ],
      "min": [
        -0.5,
        -6.75,
        -0.5
      ],
      "type": "VEC3"
    },
    {
      "bufferView": 2,
      "byteOffset": 77112,
      "componentType": 5126,
      "count": 54,
      "max": [
        0.9965458512306213,
        0.08304549008607864,
        0.9965458512306213
      ],
      "min": [
        -0.9965458512306213,
        -1.0,
        -0.9965458512306213
      ],
      "type": "VEC3"
    },
    {
      "bufferView": 1,
      "byteOffset": 25488,
      "componentType": 5126,
      "count": 54,
      "max": [
        0.41796875,
        0.6145812273025513
      ],
      "min": [
        0.19950564205646515,
        0.0
      ],
      "type": "VEC2"
    },
    {
      "bufferView": 0,
      "byteOffset": 18408,
      "componentType": 5125,
      "count": 72,
      "type": "SCALAR"
    },
    {
      "bufferView": 2,
      "byteOffset": 77760,
      "componentType": 5126,
      "count": 264,
      "max": [
        0.125,
        0.125,
        0.125
      ],
      "min": [
        -0.125,
        -0.125,
        -0.125
      ],
      "type": "VEC3"
    },
    {
      "bufferView": 2,
      "byteOffset": 80928,
      "componentType": 5126,
      "count": 264,
      "max": [
        0.965925931930542,
        0.965925931930542,
        0.965925931930542
      ],
      "min": [
        -0.965925931930542,
        -0.965925931930542,
        -0.965925931930542
      ],
      "type": "VEC3"
    },
    {
      "bufferView": 1,
      "byteOffset": 25920,
      "componentType": 5126,
      "count": 264,
      "max": [
        0.906723141670227,
        0.8125
      ],
      "min": [
        0.020672665908932686,
        0.0
      ],
      "type": "VEC2"
    },
    {
      "bufferView": 0,
      "byteOffset": 18696,
      "componentType": 5125,
      "count": 360,
      "type": "SCALAR"
    },
    {
      "bufferView": 2,
      "byteOffset": 84096,
      "componentType": 5126,
      "count": 264,
      "max": [
        0.125,
        0.125,
        0.125
      ],
      "min": [
        -0.125,
        -0.125,
        -0.125
      ],
      "type": "VEC3"
    },
    {
      "bufferView": 2,
      "byteOffset": 87264,
      "componentType": 5126,
      "count": 264,
      "max": [
        0.965925931930542,
        0.965925931930542,
        0.965925931930542
      ],
      "min": [
        -0.965925931930542,
        -0.965925931930542,
        -0.965925931930542
      ],
      "type": "VEC3"
    },
    {
      "bufferView": 1,
      "byteOffset": 28032,
      "componentType": 5126,
      "count": 264,
      "max": [
        0.7892138361930847,
        0.6622634530067444
      ],
      "min": [
        0.0022437500301748514,
        0.0
      ],
      "type": "VEC2"
    },
    {
      "bufferView": 0,
      "byteOffset": 20136,
      "componentType": 5125,
      "count": 360,
      "type": "SCALAR"
    },
    {
      "bufferView": 2,
      "byteOffset": 90432,
      "componentType": 5126,
      "count": 264,
      "max": [
        0.125,
        0.125,
        0.125
      ],
      "min": [
        -0.125,
        -0.125,
        -0.125
      ],
      "type": "VEC3"
    },
    {
      "bufferView": 2,
      "byteOffset": 93600,
      "componentType": 5126,
      "count": 264,
      "max": [
        0.965925931930542,
        0.965925931930542,
        0.965925931930542
      ],
      "min": [
        -0.965925931930542,
        -0.965925931930542,
        -0.965925931930542
      ],
      "type": "VEC3"
    },
    {
      "bufferView": 1,
      "byteOffset": 30144,
      "componentType": 5126,
      "count": 264,
      "max": [
        0.7892138361930847,
        0.6622634530067444
      ],
      "min": [
        0.0022437500301748514,
        0.0
      ],
      "type": "VEC2"
    },
    {
      "bufferView": 0,
      "byteOffset": 21576,
      "componentType": 5125,
      "count": 360,
      "type": "SCALAR"
    },
    {
      "bufferView": 2,
      "byteOffset": 96768,
      "componentType": 5126,
      "count": 1104,
      "max": [
        1.0,
        1.0,
        1.0
      ],
      "min": [
        -1.0,
        -1.0,
        -1.0
      ],
      "type": "VEC3"
    },
    {
      "bufferView": 2,
      "byteOffset": 110016,
      "componentType": 5126,
      "count": 1104,
      "max": [
        0.9914448857307434,
        0.9914448857307434,
        0.9914448857307434
      ],
      "min": [
        -0.9914448857307434,
        -0.9914448857307434,
        -0.9914448857307434
      ],
      "type": "VEC3"
    },
    {
      "bufferView": 1,
      "byteOffset": 32256,
      "componentType": 5126,
      "count": 1104,
      "max": [
        0.640625,
        0.6328125
      ],
      "min": [
        0.0,
        0.0
      ],
      "type": "VEC2"
    },
    {
      "bufferView": 0,
      "byteOffset": 23016,
      "componentType": 5125,
      "count": 1584,
      "type": "SCALAR"
    },
    {
      "bufferView": 3,
      "componentType": 5126,
      "count": 6,
      "max": [
        12.0
      ],
      "min": [
        0.0
      ],
      "type": "SCALAR"
    },
    {
      "bufferView": 5,
      "componentType": 5126,
      "count": 6,
      "max": [
        0.0,
        0.9510565400123596,
        0.0,
        1.0
      ],
      "min": [
        0.0,
        -0.9510565400123596,
        0.0,
        -0.80901700258255
      ],
      "type": "VEC4"
    },
    {
      "bufferView": 3,
      "byteOffset": 24,
      "componentType": 5126,
      "count": 4,
      "max": [
        12.0
      ],
      "min": [
        0.0
      ],
      "type": "SCALAR"
    },
    {
      "bufferView": 5,
      "byteOffset": 96,
      "componentType": 5126,
      "count": 4,
      "max": [
        0.0,
        0.0,
        0.0,
        1.0
      ],
      "min": [
        0.0,
        -0.8660253882408142,
        0.0,
        -1.0
      ],
      "type": "VEC4"
    },
    {
      "bufferView": 3,
      "byteOffset": 40,
      "componentType": 5126,
      "count": 206,
      "max": [
        12.0
      ],
      "min": [
        0.0
      ],
      "type": "SCALAR"
    },
    {
      "bufferView": 4,
      "componentType": 5126,
      "count": 206,
      "max": [
        24.375,
        0.0625,
        23.1875
      ],
      "min": [
        -24.375,
        0.0,
        -23.1875
      ],
      "type": "VEC3"
    },
    {
      "bufferView": 3,
      "byteOffset": 864,
      "componentType": 5126,
      "count": 206,
      "max": [
        12.0
      ],
      "min": [
        0.0
      ],
      "type": "SCALAR"
    },
    {
      "bufferView": 4,
      "byteOffset": 2472,
      "componentType": 5126,
      "count": 206,
      "max": [
        2.0,
        2.0,
        2.0
      ],
      "min": [
        0.75,
        0.75,
        0.75
      ],
      "type": "VEC3"
    },
    {
      "bufferView": 3,
      "byteOffset": 1688,
      "componentType": 5126,
      "count": 207,
      "max": [
        12.0
      ],
      "min": [
        0.0
      ],
      "type": "SCALAR"
    },
    {
      "bufferView": 5,
      "byteOffset": 160,
      "componentType": 5126,
      "count": 207,
      "max": [
        0.19509032368659973,
        0.0,
        0.0,
        0.9807852506637573
      ],
      "min": [
        -0.19509032368659973,
        -0.9807852506637573,
        -0.19509032368659973,
        -0.9807852506637573
      ],
      "type": "VEC4"
    },
    {
      "bufferView": 3,
      "byteOffset": 2516,
      "componentType": 5126,
      "count": 13,
      "max": [
        12.0
      ],
      "min": [
        0.0
      ],
      "type": "SCALAR"
    },
    {
      "bufferView": 5,
      "byteOffset": 3472,
      "componentType": 5126,
      "count": 13,
      "max": [
        0.8365163207054138,
        0.8365163207054138,
        0.6870641708374023,
        0.9238795042037964
      ],
      "min": [
        -0.8365163207054138,
        -0.527202844619751,
        -0.9238795042037964,
        -0.9238795042037964
      ],
      "type": "VEC4"
    },
    {
      "bufferView": 3,
      "byteOffset": 2568,
      "componentType": 5126,
      "count": 203,
      "max": [
        12.0
      ],
      "min": [
        0.0
      ],
      "type": "SCALAR"
    },
    {
      "bufferView": 4,
      "byteOffset": 4944,
      "componentType": 5126,
      "count": 203,
      "max": [
        40.3125,
        20.25,
        40.3125
      ],
      "min": [
        -40.3125,
        -20.25,
        -40.3125
      ],
      "type": "VEC3"
    },
    {
      "bufferView": 3,
      "byteOffset": 3380,
      "componentType": 5126,
      "count": 194,
      "max": [
        12.0
      ],
      "min": [
        0.0
      ],
      "type": "SCALAR"
    },
    {
      "bufferView": 4,
      "byteOffset": 7380,
      "componentType": 5126,
      "count": 194,
      "max": [
        1.6875,
        0.0,
        1.6875
      ],
      "min": [
        -1.6875,
        0.0,
        -1.6875
      ],
      "type": "VEC3"
    },
    {
      "bufferView": 3,
      "byteOffset": 4156,
      "componentType": 5126,
      "count": 206,
      "max": [
        12.0
      ],
      "min": [
        0.0
      ],
      "type": "SCALAR"
    },
    {
      "bufferView": 4,
      "byteOffset": 9708,
      "componentType": 5126,
      "count": 206,
      "max": [
        22.5625,
        9.625,
        24.0
      ],
      "min": [
        -22.5625,
        -9.625,
        -24.0
      ],
      "type": "VEC3"
    },
    {
      "bufferView": 3,
      "byteOffset": 4980,
      "componentType": 5126,
      "count": 206,
      "max": [
        12.0
      ],
      "min": [
        0.0
      ],
      "type": "SCALAR"
    },
    {
      "bufferView": 5,
      "byteOffset": 3680,
      "componentType": 5126,
      "count": 206,
      "max": [
        0.19509032368659973,
        0.999535322189331,
        0.19509032368659973,
        0.9955345392227173
      ],
      "min": [
        -0.19509032368659973,
        -0.999535322189331,
        -0.19509032368659973,
        -0.9923914074897766
      ],
      "type": "VEC4"
    },
    {
      "bufferView": 3,
      "byteOffset": 5804,
      "componentType": 5126,
      "count": 203,
      "max": [
        12.0
      ],
      "min": [
        0.0
      ],
      "type": "SCALAR"
    },
    {
      "bufferView": 4,
      "byteOffset": 12180,
      "componentType": 5126,
      "count": 203,
      "max": [
        48.9375,
        12.5,
        48.9375
      ],
      "min": [
        -48.9375,
        -12.5,
        -48.9375
      ],
      "type": "VEC3"
    },
    {
      "bufferView": 3,
      "byteOffset": 6616,
      "componentType": 5126,
      "count": 6,
      "max": [
        12.0
      ],
      "min": [
        0.0
      ],
      "type": "SCALAR"
    },
    {
      "bufferView": 5,
      "byteOffset": 6976,
      "componentType": 5126,
      "count": 6,
      "max": [
        0.8526401519775391,
        0.9238795042037964,
        0.8526401519775391,
        0.9238795042037964
      ],
      "min": [
        -0.649448037147522,
        -0.760405957698822,
        -0.649448037147522,
        -0.760405957698822
      ],
      "type": "VEC4"
    },
    {
      "bufferView": 3,
      "byteOffset": 6640,
      "componentType": 5126,
      "count": 203,
      "max": [
        12.0
      ],
      "min": [
        0.0
      ],
      "type": "SCALAR"
    },
    {
      "bufferView": 4,
      "byteOffset": 14616,
      "componentType": 5126,
      "count": 203,
      "max": [
        40.625,
        15.875,
        40.625
      ],
      "min": [
        -40.625,
        -15.875,
        -40.625
      ],
      "type": "VEC3"
    },
    {
      "bufferView": 3,
      "byteOffset": 7452,
      "componentType": 5126,
      "count": 206,
      "max": [
        12.0
      ],
      "min": [
        0.0
      ],
      "type": "SCALAR"
    },
    {
      "bufferView": 4,
      "byteOffset": 17052,
      "componentType": 5126,
      "count": 206,
      "max": [
        0.0,
        0.625,
        0.0
      ],
      "min": [
        0.0,
        -0.625,
        0.0
      ],
      "type": "VEC3"
    }
  ],
  "animations": [
    {
      "channels": [
        {
          "sampler": 0,
          "target": {
            "node": 8,
            "path": "rotation"
          }
        },
        {
          "sampler": 1,
          "target": {
            "node": 11,
            "path": "rotation"
          }
        },
        {
          "sampler": 2,
          "target": {
            "node": 11,
            "path": "translation"
          }
        },
        {
          "sampler": 3,
          "target": {
            "node": 11,
            "path": "scale"
          }
        },
        {
          "sampler": 4,
          "target": {
            "node": 5,
            "path": "rotation"
          }
        },
        {
          "sampler": 5,
          "target": {
            "node": 14,
            "path": "rotation"
          }
        },
        {
          "sampler": 6,
          "target": {
            "node": 14,
            "path": "translation"
          }
        },
        {
          "sampler": 7,
          "target": {
            "node": 21,
            "path": "translation"
          }
        },
        {
          "sampler": 8,
          "target": {
            "node": 24,
            "path": "translation"
          }
        },
        {
          "sampler": 9,
          "target": {
            "node": 27,
            "path": "rotation"
          }
        },
        {
          "sampler": 10,
          "target": {
            "node": 27,
            "path": "translation"
          }
        },
        {
          "sampler": 11,
          "target": {
            "node": 30,
            "path": "rotation"
          }
        },
        {
          "sampler": 12,
          "target": {
            "node": 30,
            "path": "translation"
          }
        },
        {
          "sampler": 13,
          "target": {
            "node": 4,
            "path": "translation"
          }
        }
      ],
      "name": "animation.model.orbit",
      "samplers": [
        {
          "input": 40,
          "interpolation": "LINEAR",
          "output": 41
        },
        {
          "input": 42,
          "interpolation": "LINEAR",
          "output": 43
        },
        {
          "input": 44,
          "interpolation": "LINEAR",
          "output": 45
        },
        {
          "input": 46,
          "interpolation": "LINEAR",
          "output": 47
        },
        {
          "input": 48,
          "interpolation": "LINEAR",
          "output": 49
        },
        {
          "input": 50,
          "interpolation": "LINEAR",
          "output": 51
        },
        {
          "input": 52,
          "interpolation": "LINEAR",
          "output": 53
        },
        {
          "input": 54,
          "interpolation": "LINEAR",
          "output": 55
        },
        {
          "input": 56,
          "interpolation": "LINEAR",
          "output": 57
        },
        {
          "input": 58,
          "interpolation": "LINEAR",
          "output": 59
        },
        {
          "input": 60,
          "interpolation": "LINEAR",
          "output": 61
        },
        {
          "input": 62,
          "interpolation": "LINEAR",
          "output": 63
        },
        {
          "input": 64,
          "interpolation": "LINEAR",
          "output": 65
        },
        {
          "input": 66,
          "interpolation": "LINEAR",
          "output": 67
        }
      ]
    }
  ],
  "asset": {
    "extras": {
      "author": "Master Galanodel (https://sketchfab.com/Master_Galanodel)",
      "license": "CC-BY-4.0 (http://creativecommons.org/licenses/by/4.0/)",
      "source": "https://sketchfab.com/3d-models/gargantua-planetary-system-9c673933aa254733a7d875e5d312a8a2",
      "title": "Gargantua Planetary System"
    },
    "generator": "Sketchfab-15.31.0",
    "version": "2.0"
  },
  "bufferViews": [
    {
      "buffer": 0,
      "byteLength": 29352,
      "name": "floatBufferViews",
      "target": 34963
    },
    {
      "buffer": 0,
      "byteLength": 41088,
      "byteOffset": 29352,
      "byteStride": 8,
      "name": "floatBufferViews",
      "target": 34962
    },
    {
      "buffer": 0,
      "byteLength": 123264,
      "byteOffset": 70440,
      "byteStride": 12,
      "name": "floatBufferViews",
      "target": 34962
    },
    {
      "buffer": 0,
      "byteLength": 8276,
      "byteOffset": 193704,
      "name": "floatBufferViews"
    },
    {
      "buffer": 0,
      "byteLength": 19524,
      "byteOffset": 201980,
      "byteStride": 12,
      "name": "floatBufferViews"
    },
    {
      "buffer": 0,
      "byteLength": 7072,
      "byteOffset": 221504,
      "byteStride": 16,
      "name": "floatBufferViews"
    }
  ],
  "buffers": [
    {
      "byteLength": 228576,
      "uri": "scene.bin"
    }
  ],
  "extensionsUsed": [
    "KHR_materials_unlit",
    "KHR_materials_emissive_strength"
  ],
  "images": [
    {
      "uri": "textures/material_0_baseColor.png"
    },
    {
      "uri": "textures/material_1_baseColor.png"
    },
    {
      "uri": "textures/material_2_baseColor.png"
    },
    {
      "uri": "textures/material_3_baseColor.png"
    },
    {
      "uri": "textures/material_4_baseColor.png"
    },
    {
      "uri": "textures/material_5_baseColor.png"
    },
    {
      "uri": "textures/material_6_baseColor.png"
    },
    {
      "uri": "textures/material_7_baseColor.png"
    },
    {
      "uri": "textures/material_8_baseColor.png"
    }
  ],
  "materials": [
    {
      "alphaCutoff": 0.05,
      "alphaMode": "MASK",
      "doubleSided": true,
      "extensions": {
        "KHR_materials_unlit": {}
      },
      "name": "material_0",
      "pbrMetallicRoughness": {
        "baseColorTexture": {
          "index": 0
        },
        "metallicFactor": 0.0
      }
    },
    {
      "alphaCutoff": 0.05,
      "alphaMode": "MASK",
      "doubleSided": true,
      "extensions": {
        "KHR_materials_unlit": {}
      },
      "name": "material_1",
      "pbrMetallicRoughness": {
        "baseColorTexture": {
          "index": 1
        },
        "metallicFactor": 0.0
      }
    },
    {
      "alphaCutoff": 0.05,
      "alphaMode": "MASK",
      "doubleSided": true,
      "extensions": {
        "KHR_materials_unlit": {}
      },
      "name": "material_2",
      "pbrMetallicRoughness": {
        "baseColorTexture": {
          "index": 2
        },
        "metallicFactor": 0.0
      }
    },
    {
      "alphaCutoff": 0.05,
      "alphaMode": "MASK",
      "doubleSided": true,
      "extensions": {
        "KHR_materials_emissive_strength": {
          "emissiveStrength": 10.0
        },
        "KHR_materials_unlit": {}
      },
      "name": "material_3",
      "pbrMetallicRoughness": {
        "baseColorTexture": {
          "index": 3
        },
        "metallicFactor": 0.0
      }
    },
    {
      "alphaCutoff": 0.05,
      "alphaMode": "MASK",
      "doubleSided": true,
      "extensions": {
        "KHR_materials_unlit": {}
      },
      "name": "material_4",
      "pbrMetallicRoughness": {
        "baseColorTexture": {
          "index": 4
        },
        "metallicFactor": 0.0
      }
    },
    {
      "alphaCutoff": 0.05,
      "alphaMode": "MASK",
      "doubleSided": true,
      "extensions": {
        "KHR_materials_unlit": {}
      },
      "name": "material_5",
      "pbrMetallicRoughness": {
        "baseColorTexture": {
          "index": 5
        },
        "metallicFactor": 0.0
      }
    },
    {
      "alphaCutoff": 0.05,
      "alphaMode": "MASK",
      "doubleSided": true,
      "extensions": {
        "KHR_materials_unlit": {}
      },
      "name": "material_6",
      "pbrMetallicRoughness": {
        "baseColorTexture": {
          "index": 6
        },
        "metallicFactor": 0.0
      }
    },
    {
      "alphaCutoff": 0.05,
      "alphaMode": "MASK",
      "doubleSided": true,
      "extensions": {
        "KHR_materials_unlit": {}
      },
      "name": "material_7",
      "pbrMetallicRoughness": {
        "baseColorTexture": {
          "index": 7
        },
        "metallicFactor": 0.0
      }
    },
    {
      "alphaCutoff": 0.05,
      "alphaMode": "MASK",
      "doubleSided": true,
      "extensions": {
        "KHR_materials_unlit": {}
      },
      "name": "material_8",
      "pbrMetallicRoughness": {
        "baseColorTexture": {
          "index": 8
        },
        "metallicFactor": 0.0
      }
    }
  ],
  "meshes": [
    {
      "name": "Object_0",
      "primitives": [
        {
          "attributes": {
            "NORMAL": 1,
            "POSITION": 0,
            "TEXCOORD_0": 2
          },
          "indices": 3,
          "material": 0,
          "mode": 4
        }
      ]
    },
    {
      "name": "Object_1",
      "primitives": [
        {
          "attributes": {
            "NORMAL": 5,
            "POSITION": 4,
            "TEXCOORD_0": 6
          },
          "indices": 7,
          "material": 1,
          "mode": 4
        }
      ]
    },
    {
      "name": "Object_2",
      "primitives": [
        {
          "attributes": {
            "NORMAL": 9,
            "POSITION": 8,
            "TEXCOORD_0": 10
          },
          "indices": 11,
          "material": 2,
          "mode": 4
        }
      ]
    },
    {
      "name": "Object_3",
      "primitives": [
        {
          "attributes": {
            "NORMAL": 13,
            "POSITION": 12,
            "TEXCOORD_0": 14
          },
          "indices": 15,
          "material": 3,
          "mode": 4
        }
      ]
    },
    {
      "name": "Object_4",
      "primitives": [
        {
          "attributes": {
            "NORMAL": 17,
            "POSITION": 16,
            "TEXCOORD_0": 18
          },
          "indices": 19,
          "material": 4,
          "mode": 4
        }
      ]
    },
    {
      "name": "Object_5",
      "primitives": [
        {
          "attributes": {
            "NORMAL": 21,
            "POSITION": 20,
            "TEXCOORD_0": 22
          },
          "indices": 23,
          "material": 4,
          "mode": 4
        }
      ]
    },
    {
      "name": "Object_6",
      "primitives": [
        {
          "attributes": {
            "NORMAL": 25,
            "POSITION": 24,
            "TEXCOORD_0": 26
          },
          "indices": 27,
          "material": 5,
          "mode": 4
        }
      ]
    },
    {
      "name": "Object_7",
      "primitives": [
        {
          "attributes": {
            "NORMAL": 29,
            "POSITION": 28,
            "TEXCOORD_0": 30
          },
          "indices": 31,
          "material": 6,
          "mode": 4
        }
      ]
    },
    {
      "name": "Object_8",
      "primitives": [
        {
          "attributes": {
            "NORMAL": 33,
            "POSITION": 32,
            "TEXCOORD_0": 34
          },
          "indices": 35,
          "material": 7,
          "mode": 4
        }
      ]
    },
    {
      "name": "Object_9",
      "primitives": [
        {
          "attributes": {
            "NORMAL": 37,
            "POSITION": 36,
            "TEXCOORD_0": 38
          },
          "indices": 39,
          "material": 8,
          "mode": 4
        }
      ]
    }
  ],
  "nodes": [
    {
      "children": [
        1
      ],
      "matrix": [
        1.0,
        0.0,
        0.0,
        0.0,
        0.0,
        2.220446049250313e-16,
        -1.0,
        0.0,
        0.0,
        1.0,
        2.220446049250313e-16,
        0.0,
        0.0,
        0.0,
        0.0,
        1.0
      ],
      "name": "Sketchfab_model"
    },
    {
      "children": [
        2
      ],
      "name": "root"
    },
    {
      "children": [
        3
      ],
      "matrix": [
        1.0,
        0.0,
        0.0,
        0.0,
        0.0,
        2.220446049250313e-16,
        1.0,
        0.0,
        0.0,
        -1.0,
        2.220446049250313e-16,
        0.0,
        0.0,
        0.0,
        0.0,
        1.0
      ],
      "name": "GLTF_SceneRootNode"
    },
    {
      "children": [
        4
      ],
      "name": "_19"
    },
    {
      "children": [
        5,
        14,
        24,
        27,
        30
      ],
      "name": "Singularity_18"
    },
    {
      "children": [
        6,
        8,
        11
      ],
      "name": "Gargantua_5"
    },
    {
      "children": [
        7
      ],
      "name": "sphere_0"
    },
    {
      "mesh": 0,
      "name": "Object_7"
    },
    {
      "children": [
        9
      ],
      "name": "AccretionDiskPlane_2"
    },
    {
      "children": [
        10
      ],
      "name": "cube_1"
    },
    {
      "mesh": 1,
      "name": "Object_10"
    },
    {
      "children": [
        12
      ],
      "name": "AccretionDiskShine_4"
    },
    {
      "children": [
        13
      ],
      "name": "cube_3"
    },
    {
      "mesh": 2,
      "name": "Object_13"
    },
    {
      "children": [
        15,
        17,
        19,
        21
      ],
      "name": "Pantagruel_11"
    },
    {
      "children": [
        16
      ],
      "name": "sphere_6"
    },
    {
      "mesh": 3,
      "name": "Object_16"
    },
    {
      "children": [
        18
      ],
      "name": "cone_7"
    },
    {
      "mesh": 4,
      "name": "Object_18"
    },
    {
      "children": [
        20
      ],
      "matrix": [
        -1.0,
        -1.2246468525851679e-16,
        -0.0,
        0.0,
        1.2246468525851679e-16,
        -1.0,
        0.0,
        0.0,
        0.0,
        -0.0,
        1.0,
        0.0,
        0.0,
        0.0,
        0.0,
        1.0
      ],
      "name": "cone_8"
    },
    {
      "mesh": 5,
      "name": "Object_20"
    },
    {
      "children": [
        22
      ],
      "name": "Edmund_10"
    },
    {
      "children": [
        23
      ],
      "name": "sphere_9"
    },
    {
      "mesh": 6,
      "name": "Object_23"
    },
    {
      "children": [
        25
      ],
      "name": "Miller_13"
    },
    {
      "children": [
        26
      ],
      "name": "sphere_12"
    },
    {
      "mesh": 7,
      "name": "Object_26"
    },
    {
      "children": [
        28
      ],
      "name": "Mann_15"
    },
    {
      "children": [
        29
      ],
      "name": "sphere_14"
    },
    {
      "mesh": 8,
      "name": "Object_29"
    },
    {
      "children": [
        31
      ],
      "name": "Panurge_17"
    },
    {
      "children": [
        32
      ],
      "name": "sphere_16"
    },
    {
      "mesh": 9,
      "name": "Object_32"
    }
  ],
  "samplers": [
    {
      "magFilter": 9728,
      "minFilter": 9728,
      "wrapS": 33071,
      "wrapT": 33071
    }
  ],
  "scene": 0,
  "scenes": [
    {
      "name": "Sketchfab_Scene",
      "nodes": [
        0
      ]
    }
  ],
  "textures": [
    {
      "sampler": 0,
      "source": 0
    },
    {
      "sampler": 0,
      "source": 1
    },
    {
      "sampler": 0,
      "source": 2
    },
    {
      "sampler": 0,
      "source": 3
    },
    {
      "sampler": 0,
      "source": 4
    },
    {
      "sampler": 0,
      "source": 5
    },
    {
      "sampler": 0,
      "source": 6
    },
    {
      "sampler": 0,
      "source": 7
    },
    {
      "sampler": 0,
      "source": 8
    }
  ]
}
