{
  "accessors": [
    {
      "bufferView": 2,
      "componentType": 5126,
      "count": 26669,
      "max": [
        2625.3056640625,
        1539.3878173828125,
        2612.349609375
      ],
      "min": [
        -2612.34716796875,
        -76.2984619140625,
        -2625.30419921875
      ],
      "type": "VEC3"
    },
    {
      "bufferView": 2,
      "byteOffset": 320028,
      "componentType": 5126,
      "count": 26669,
      "max": [
        1.0,
        1.0,
        1.0
      ],
      "min": [
        -1.0,
        -1.0,
        -1.0
      ],
      "type": "VEC3"
    },
    {
      "bufferView": 3,
      "componentType": 5126,
      "count": 26669,
      "max": [
        1.0,
        1.0,
        1.0,
        1.0
      ],
      "min": [
        -1.0,
        -1.0,
        -1.0,
        -1.0
      ],
      "type": "VEC4"
    },
    {
      "bufferView": 1,
      "componentType": 5126,
      "count": 26669,
      "max": [
        1.052656650543213,
        1.0
      ],
      "min": [
        -0.042093388736248016,
        0.0
      ],
      "type": "VEC2"
    },
    {
      "bufferView": 0,
      "componentType": 5125,
      "count": 51384,
      "type": "SCALAR"
    },
    {
      "bufferView": 2,
      "byteOffset": 640056,
      "componentType": 5126,
      "count": 168,
      "max": [
        2275.808837890625,
        1510.7784423828125,
        2264.654541015625
      ],
      "min": [
        -2264.653076171875,
        -35.633056640625,
        -2275.807373046875
      ],
      "type": "VEC3"
    },
    {
      "bufferView": 2,
      "byteOffset": 642072,
      "componentType": 5126,
      "count": 168,
      "max": [
        0.9259750843048096,
        0.9999815821647644,
        0.9170576333999634
      ],
      "min": [
        -0.9170575737953186,
        -0.9244035482406616,
        -0.9259771704673767
      ],
      "type": "VEC3"
    },
    {
      "bufferView": 1,
      "byteOffset": 213352,
      "componentType": 5126,
      "count": 168,
      "max": [
        0.3499999940395355,
        0.96875
      ],
      "min": [
        0.15000000596046448,
        0.0
      ],
      "type": "VEC2"
    },
    {
      "bufferView": 0,
      "byteOffset": 205536,
      "componentType": 5125,
      "count": 252,
      "type": "SCALAR"
    },
    {
      "bufferView": 2,
      "byteOffset": 644088,
      "componentType": 5126,
      "count": 108,
      "max": [
        19.85578155517578,
        36.778831481933594,
        20.839378356933594
      ],
      "min": [
        -24.076339721679688,
        -18.81682014465332,
        -20.00326156616211
      ],
      "type": "VEC3"
    },
    {
      "bufferView": 2,
      "byteOffset": 645384,
      "componentType": 5126,
      "count": 108,
      "max": [
        1.0,
        1.0,
        1.0
      ],
      "min": [
        -1.0,
        -1.0,
        -1.0
      ],
      "type": "VEC3"
    },
    {
      "bufferView": 3,
      "byteOffset": 426704,
      "componentType": 5126,
      "count": 108,
      "max": [
        1.0,
        1.0,
        0.9014492630958557,
        1.0
      ],
      "min": [
        -1.0,
        -1.0,
        -0.5955715179443359,
        -1.0
      ],
      "type": "VEC4"
    },
    {
      "bufferView": 1,
      "byteOffset": 214696,
      "componentType": 5126,
      "count": 108,
      "max": [
        1.0410985946655273,
        1.0204293727874756
      ],
      "min": [
        -0.0511963926255703,
        -0.020429901778697968
      ],
      "type": "VEC2"
    },
    {
      "bufferView": 0,
      "byteOffset": 206544,
      "componentType": 5125,
      "count": 144,
      "type": "SCALAR"
    },
    {
      "bufferView": 2,
      "byteOffset": 646680,
      "componentType": 5126,
      "count": 324,
      "max": [
        202.4065399169922,
        186.33428955078125,
        36.318511962890625
      ],
      "min": [
        -374.30535888671875,
        -60.04742431640625,
        0.0
      ],
      "type": "VEC3"
    },
    {
      "bufferView": 2,
      "byteOffset": 650568,
      "componentType": 5126,
      "count": 324,
      "max": [
        1.0,
        1.0,
        1.0
      ],
      "min": [
        -1.0,
        -1.0,
        -1.0
      ],
      "type": "VEC3"
    },
    {
      "bufferView": 3,
      "byteOffset": 428432,
      "componentType": 5126,
      "count": 324,
      "max": [
        1.0,
        1.0,
        1.0,
        1.0
      ],
      "min": [
        -1.0,
        -1.0,
        -0.4353305399417877,
        1.0
      ],
      "type": "VEC4"
    },
    {
      "bufferView": 1,
      "byteOffset": 215560,
      "componentType": 5126,
      "count": 324,
      "max": [
        0.9900000095367432,
        0.9637185335159302
      ],
      "min": [
        0.009999999776482582,
        0.009999999776482582
      ],
      "type": "VEC2"
    },
    {
      "bufferView": 0,
      "byteOffset": 207120,
      "componentType": 5125,
      "count": 576,
      "type": "SCALAR"
    },
    {
      "bufferView": 2,
      "byteOffset": 654456,
      "componentType": 5126,
      "count": 16,
      "max": [
        202.4065399169922,
        14.496284484863281,
        7.419768810272217
      ],
      "min": [
        -374.30535888671875,
        -35.10301971435547,
        6.158507347106934
      ],
      "type": "VEC3"
    },
    {
      "bufferView": 2,
      "byteOffset": 654648,
      "componentType": 5126,
      "count": 16,
      "max": [
        0.012473855167627335,
        0.0,
        1.0
      ],
      "min": [
        -0.012473853304982185,
        0.0,
        0.9999222159385681
      ],
      "type": "VEC3"
    },
    {
      "bufferView": 1,
      "byteOffset": 218152,
      "componentType": 5126,
      "count": 16,
      "max": [
        0.9900000095367432,
        0.8637818098068237
      ],
      "min": [
        0.009999999776482582,
        0.37252095341682434
      ],
      "type": "VEC2"
    },
    {
      "bufferView": 0,
      "byteOffset": 209424,
      "componentType": 5125,
      "count": 24,
      "type": "SCALAR"
    },
    {
      "bufferView": 2,
      "byteOffset": 654840,
      "componentType": 5126,
      "count": 4539,
      "max": [
        57.42231750488281,
        34.77285385131836,
        1.6305421590805054
      ],
      "min": [
        -6.537924766540527,
        -35.25532913208008,
        -72.22801971435547
      ],
      "type": "VEC3"
    },
    {
      "bufferView": 2,
      "byteOffset": 709308,
      "componentType": 5126,
      "count": 4539,
      "max": [
        1.0,
        1.0,
        1.0
      ],
      "min": [
        -1.0,
        -1.0,
        -1.0
      ],
      "type": "VEC3"
    },
    {
      "bufferView": 1,
      "byteOffset": 218280,
      "componentType": 5126,
      "count": 4539,
      "max": [
        0.9480438232421875,
        0.6338273286819458
      ],
      "min": [
        0.0519561767578125,
        0.2832145094871521
      ],
      "type": "VEC2"
    },
    {
      "bufferView": 1,
      "byteOffset": 254592,
      "componentType": 5126,
      "count": 4539,
      "max": [
        0.9480438232421875,
        0.6338273286819458
      ],
      "min": [
        0.0519561767578125,
        0.2832145094871521
      ],
      "type": "VEC2"
    },
    {
      "bufferView": 0,
      "byteOffset": 209520,
      "componentType": 5125,
      "count": 13884,
      "type": "SCALAR"
    },
    {
      "bufferView": 2,
      "byteOffset": 763776,
      "componentType": 5126,
      "count": 1435,
      "max": [
        2094.843994140625,
        2298.69091796875,
        7424.1181640625
      ],
      "min": [
        -2044.7449951171875,
        -7124.5361328125,
        -5694.79638671875
      ],
      "type": "VEC3"
    },
    {
      "bufferView": 2,
      "byteOffset": 780996,
      "componentType": 5126,
      "count": 1435,
      "max": [
        1.0,
        0.9999998211860657,
        1.0
      ],
      "min": [
        -1.0,
        -0.9999914765357971,
        -1.0
      ],
      "type": "VEC3"
    },
    {
      "bufferView": 1,
      "byteOffset": 290904,
      "componentType": 5126,
      "count": 1435,
      "max": [
        0.9900000095367432,
        0.9899017810821533
      ],
      "min": [
        0.009999999776482582,
        0.009999999776482582
      ],
      "type": "VEC2"
    },
    {
      "bufferView": 0,
      "byteOffset": 265056,
      "componentType": 5125,
      "count": 3012,
      "type": "SCALAR"
    },
    {
      "bufferView": 2,
      "byteOffset": 798216,
      "componentType": 5126,
      "count": 9,
      "max": [
        987.459228515625,
        987.459228515625,
        136.54180908203125
      ],
      "min": [
        -987.459228515625,
        -987.459228515625,
        136.54180908203125
      ],
      "type": "VEC3"
    },
    {
      "bufferView": 2,
      "byteOffset": 798324,
      "componentType": 5126,
      "count": 9,
      "max": [
        2.0093581909463865e-08,
        0.0,
        1.0
      ],
      "min": [
        -4.306634604489545e-09,
        -2.431796630730787e-08,
        1.0
      ],
      "type": "VEC3"
    },
    {
      "bufferView": 1,
      "byteOffset": 302384,
      "componentType": 5126,
      "count": 9,
      "max": [
        0.4668301045894623,
        0.8380644917488098
      ],
      "min": [
        0.3950382471084595,
        0.7662726044654846
      ],
      "type": "VEC2"
    },
    {
      "bufferView": 0,
      "byteOffset": 277104,
      "componentType": 5125,
      "count": 24,
      "type": "SCALAR"
    },
    {
      "bufferView": 2,
      "byteOffset": 798432,
      "componentType": 5126,
      "count": 67,
      "max": [
        1661.610107421875,
        -698.2391967773438,
        6227.7919921875
      ],
      "min": [
        -1637.51416015625,
        -6952.16357421875,
        -2730.904052734375
      ],
      "type": "VEC3"
    },
    {
      "bufferView": 2,
      "byteOffset": 799236,
      "componentType": 5126,
      "count": 67,
      "max": [
        0.9991623163223267,
        0.7506209015846252,
        0.5278587937355042
      ],
      "min": [
        -0.999150812625885,
        -0.9998670816421509,
        -0.1457957923412323
      ],
      "type": "VEC3"
    },
    {
      "bufferView": 3,
      "byteOffset": 433616,
      "componentType": 5126,
      "count": 67,
      "max": [
        0.268565833568573,
        0.9966885447502136,
        0.9999982714653015,
        1.0
      ],
      "min": [
        -0.261053204536438,
        -0.9968790411949158,
        -0.9112595319747925,
        1.0
      ],
      "type": "VEC4"
    },
    {
      "bufferView": 1,
      "byteOffset": 302456,
      "componentType": 5126,
      "count": 67,
      "max": [
        0.878304123878479,
        0.9256113767623901
      ],
      "min": [
        0.009999999776482582,
        0.02335258573293686
      ],
      "type": "VEC2"
    },
    {
      "bufferView": 0,
      "byteOffset": 277200,
      "componentType": 5125,
      "count": 147,
      "type": "SCALAR"
    },
    {
      "bufferView": 2,
      "byteOffset": 800040,
      "componentType": 5126,
      "count": 53,
      "max": [
        2094.843994140625,
        2069.896728515625,
        80.081298828125
      ],
      "min": [
        -1994.64599609375,
        -1665.0181884765625,
        -2743.251708984375
      ],
      "type": "VEC3"
    },
    {
      "bufferView": 2,
      "byteOffset": 800676,
      "componentType": 5126,
      "count": 53,
      "max": [
        0.9977363348007202,
        0.9795786142349243,
        0.14961886405944824
      ],
      "min": [
        -0.9977364540100098,
        -0.9795786738395691,
        -0.9999034404754639
      ],
      "type": "VEC3"
    },
    {
      "bufferView": 1,
      "byteOffset": 302992,
      "componentType": 5126,
      "count": 53,
      "max": [
        0.9711626172065735,
        0.9779263138771057
      ],
      "min": [
        0.009999999776482582,
        0.02109779231250286
      ],
      "type": "VEC2"
    },
    {
      "bufferView": 0,
      "byteOffset": 277788,
      "componentType": 5125,
      "count": 75,
      "type": "SCALAR"
    },
    {
      "bufferView": 2,
      "byteOffset": 801312,
      "componentType": 5126,
      "count": 65532,
      "max": [
        256.0083312988281,
        728.3524169921875,
        759.5868530273438
      ],
      "min": [
        -328.524169921875,
        -300.4845886230469,
        -786.2578125
      ],
      "type": "VEC3"
    },
    {
      "bufferView": 2,
      "byteOffset": 1587696,
      "componentType": 5126,
      "count": 65532,
      "max": [
        1.0,
        1.0,
        1.0
      ],
      "min": [
        -1.0,
        -1.0,
        -1.0
      ],
      "type": "VEC3"
    },
    {
      "bufferView": 1,
      "byteOffset": 303416,
      "componentType": 5126,
      "count": 65532,
      "max": [
        15.822484016418457,
        13.633800506591797
      ],
      "min": [
        -15.915782928466797,
        -28.327621459960938
      ],
      "type": "VEC2"
    },
    {
      "bufferView": 0,
      "byteOffset": 278088,
      "componentType": 5125,
      "count": 92106,
      "type": "SCALAR"
    },
    {
      "bufferView": 2,
      "byteOffset": 2374080,
      "componentType": 5126,
      "count": 65533,
      "max": [
        257.35064697265625,
        900.9034423828125,
        1919.3272705078125
      ],
      "min": [
        -330.2777099609375,
        -808.54736328125,
        -786.2578125
      ],
      "type": "VEC3"
    },
    {
      "bufferView": 2,
      "byteOffset": 3160476,
      "componentType": 5126,
      "count": 65533,
      "max": [
        1.0,
        1.0,
        1.0
      ],
      "min": [
        -1.0,
        -1.0,
        -1.0
      ],
      "type": "VEC3"
    },
    {
      "bufferView": 1,
      "byteOffset": 827672,
      "componentType": 5126,
      "count": 65533,
      "max": [
        15.822484016418457,
        13.633800506591797
      ],
      "min": [
        -15.915782928466797,
        -28.327621459960938
      ],
      "type": "VEC2"
    },
    {
      "bufferView": 0,
      "byteOffset": 646512,
      "componentType": 5125,
      "count": 84150,
      "type": "SCALAR"
    },
    {
      "bufferView": 2,
      "byteOffset": 3946872,
      "componentType": 5126,
      "count": 39466,
      "max": [
        272.33721923828125,
        720.6448364257813,
        775.7123413085938
      ],
      "min": [
        -326.85845947265625,
        -840.612060546875,
        -495.34320068359375
      ],
      "type": "VEC3"
    },
    {
      "bufferView": 2,
      "byteOffset": 4420464,
      "componentType": 5126,
      "count": 39466,
      "max": [
        1.0,
        1.0,
        1.0
      ],
      "min": [
        -1.0,
        -1.0,
        -1.0
      ],
      "type": "VEC3"
    },
    {
      "bufferView": 1,
      "byteOffset": 1351936,
      "componentType": 5126,
      "count": 39466,
      "max": [
        15.822484016418457,
        13.633800506591797
      ],
      "min": [
        -15.915782928466797,
        -28.327621459960938
      ],
      "type": "VEC2"
    },
    {
      "bufferView": 0,
      "byteOffset": 983112,
      "componentType": 5125,
      "count": 42564,
      "type": "SCALAR"
    },
    {
      "bufferView": 2,
      "byteOffset": 4894056,
      "componentType": 5126,
      "count": 954,
      "max": [
        256.8279724121094,
        760.7182006835938,
        1858.02294921875
      ],
      "min": [
        -234.01536560058594,
        -841.79541015625,
        -764.1260375976563
      ],
      "type": "VEC3"
    },
    {
      "bufferView": 2,
      "byteOffset": 4905504,
      "componentType": 5126,
      "count": 954,
      "max": [
        0.9992237091064453,
        0.9390022158622742,
        1.0
      ],
      "min": [
        -0.9954618215560913,
        -0.8945960998535156,
        -0.8980280160903931
      ],
      "type": "VEC3"
    },
    {
      "bufferView": 1,
      "byteOffset": 1667664,
      "componentType": 5126,
      "count": 954,
      "max": [
        9.29664421081543,
        1.0
      ],
      "min": [
        -9.351463317871094,
        -20.781845092773438
      ],
      "type": "VEC2"
    },
    {
      "bufferView": 0,
      "byteOffset": 1153368,
      "componentType": 5125,
      "count": 1104,
      "type": "SCALAR"
    },
    {
      "bufferView": 2,
      "byteOffset": 4916952,
      "componentType": 5126,
      "count": 3777,
      "max": [
        43.26625442504883,
        26.737136840820313,
        43.21100616455078
      ],
      "min": [
        -131.51953125,
        -25.60799789428711,
        -31.741992950439453
      ],
      "type": "VEC3"
    },
    {
      "bufferView": 2,
      "byteOffset": 4962276,
      "componentType": 5126,
      "count": 3777,
      "max": [
        1.0,
        1.0,
        1.0
      ],
      "min": [
        -1.0,
        -1.0,
        -1.0
      ],
      "type": "VEC3"
    },
    {
      "bufferView": 3,
      "byteOffset": 434688,
      "componentType": 5126,
      "count": 3777,
      "max": [
        1.0,
        1.0,
        1.0,
        1.0
      ],
      "min": [
        -1.0,
        -1.0,
        -1.0,
        -1.0
      ],
      "type": "VEC4"
    },
    {
      "bufferView": 1,
      "byteOffset": 1675296,
      "componentType": 5126,
      "count": 3777,
      "max": [
        0.9900000095367432,
        0.9808951616287231
      ],
      "min": [
        0.009999999776482582,
        0.009999999776482582
      ],
      "type": "VEC2"
    },
    {
      "bufferView": 0,
      "byteOffset": 1157784,
      "componentType": 5125,
      "count": 4947,
      "type": "SCALAR"
    },
    {
      "bufferView": 4,
      "componentType": 5126,
      "count": 2,
      "max": [
        16.66666603088379
      ],
      "min": [
        0.0
      ],
      "type": "SCALAR"
    },
    {
      "bufferView": 5,
      "componentType": 5126,
      "count": 2,
      "max": [
        1321.791015625,
        529.8308715820313,
        -312.4126892089844
      ],
      "min": [
        1321.791015625,
        529.8308715820313,
        -312.4126892089844
      ],
      "type": "VEC3"
    },
    {
      "bufferView": 4,
      "byteOffset": 8,
      "componentType": 5126,
      "count": 2,
      "max": [
        16.66666603088379
      ],
      "min": [
        0.0
      ],
      "type": "SCALAR"
    },
    {
      "bufferView": 5,
      "byteOffset": 24,
      "componentType": 5126,
      "count": 2,
      "max": [
        0.31889060139656067,
        0.16179819405078888,
        0.3188905119895935
      ],
      "min": [
        0.31889060139656067,
        0.16179819405078888,
        0.3188905119895935
      ],
      "type": "VEC3"
    },
    {
      "bufferView": 4,
      "byteOffset": 16,
      "componentType": 5126,
      "count": 501,
      "max": [
        16.66666603088379
      ],
      "min": [
        0.0
      ],
      "type": "SCALAR"
    },
    {
      "bufferView": 6,
      "componentType": 5126,
      "count": 501,
      "max": [
        3.322191943766484e-08,
        0.9999983906745911,
        6.657892015482503e-08,
        0.9999996423721313
      ],
      "min": [
        -6.657900541995332e-08,
        -0.8618721961975098,
        -5.738261421583957e-08,
        -0.49898475408554077
      ],
      "type": "VEC4"
    },
    {
      "bufferView": 4,
      "byteOffset": 2020,
      "componentType": 5126,
      "count": 2,
      "max": [
        16.66666603088379
      ],
      "min": [
        0.0
      ],
      "type": "SCALAR"
    },
    {
      "bufferView": 5,
      "byteOffset": 48,
      "componentType": 5126,
      "count": 2,
      "max": [
        2647.61376953125,
        352.662109375,
        -151.6376495361328
      ],
      "min": [
        2647.61376953125,
        352.662109375,
        -151.6376495361328
      ],
      "type": "VEC3"
    },
    {
      "bufferView": 4,
      "byteOffset": 2028,
      "componentType": 5126,
      "count": 2,
      "max": [
        16.66666603088379
      ],
      "min": [
        0.0
      ],
      "type": "SCALAR"
    },
    {
      "bufferView": 5,
      "byteOffset": 72,
      "componentType": 5126,
      "count": 2,
      "max": [
        2.5399999618530273,
        2.5399999618530273,
        2.5399999618530273
      ],
      "min": [
        2.5399999618530273,
        2.5399999618530273,
        2.5399999618530273
      ],
      "type": "VEC3"
    },
    {
      "bufferView": 4,
      "byteOffset": 2036,
      "componentType": 5126,
      "count": 2,
      "max": [
        16.66666603088379
      ],
      "min": [
        0.0
      ],
      "type": "SCALAR"
    },
    {
      "bufferView": 6,
      "byteOffset": 8016,
      "componentType": 5126,
      "count": 2,
      "max": [
        -0.7071067690849304,
        -0.0,
        0.0,
        0.7071067690849304
      ],
      "min": [
        -0.7071067690849304,
        -0.0,
        0.0,
        0.7071067690849304
      ],
      "type": "VEC4"
    },
    {
      "bufferView": 4,
      "byteOffset": 2044,
      "componentType": 5126,
      "count": 2,
      "max": [
        16.66666603088379
      ],
      "min": [
        0.0
      ],
      "type": "SCALAR"
    },
    {
      "bufferView": 5,
      "byteOffset": 96,
      "componentType": 5126,
      "count": 2,
      "max": [
        1785.407958984375,
        139.84759521484375,
        -262.0418395996094
      ],
      "min": [
        1785.407958984375,
        139.84759521484375,
        -262.0418395996094
      ],
      "type": "VEC3"
    },
    {
      "bufferView": 4,
      "byteOffset": 2052,
      "componentType": 5126,
      "count": 2,
      "max": [
        16.66666603088379
      ],
      "min": [
        0.0
      ],
      "type": "SCALAR"
    },
    {
      "bufferView": 5,
      "byteOffset": 120,
      "componentType": 5126,
      "count": 2,
      "max": [
        0.31583067774772644,
        0.31583067774772644,
        0.31583067774772644
      ],
      "min": [
        0.31583067774772644,
        0.31583067774772644,
        0.31583067774772644
      ],
      "type": "VEC3"
    },
    {
      "bufferView": 4,
      "byteOffset": 2060,
      "componentType": 5126,
      "count": 2,
      "max": [
        16.66666603088379
      ],
      "min": [
        0.0
      ],
      "type": "SCALAR"
    },
    {
      "bufferView": 6,
      "byteOffset": 8048,
      "componentType": 5126,
      "count": 2,
      "max": [
        -0.5000001192092896,
        0.49999991059303284,
        0.49999991059303284,
        0.5000001192092896
      ],
      "min": [
        -0.5000001192092896,
        0.49999991059303284,
        0.49999991059303284,
        0.5000001192092896
      ],
      "type": "VEC4"
    },
    {
      "bufferView": 4,
      "byteOffset": 2068,
      "componentType": 5126,
      "count": 2,
      "max": [
        16.66666603088379
      ],
      "min": [
        0.0
      ],
      "type": "SCALAR"
    },
    {
      "bufferView": 5,
      "byteOffset": 144,
      "componentType": 5126,
      "count": 2,
      "max": [
        1540.74853515625,
        2201.34423828125,
        -262.9139404296875
      ],
      "min": [
        1540.74853515625,
        2201.34423828125,
        -262.9139404296875
      ],
      "type": "VEC3"
    },
    {
      "bufferView": 4,
      "byteOffset": 2076,
      "componentType": 5126,
      "count": 2,
      "max": [
        16.66666603088379
      ],
      "min": [
        0.0
      ],
      "type": "SCALAR"
    },
    {
      "bufferView": 5,
      "byteOffset": 168,
      "componentType": 5126,
      "count": 2,
      "max": [
        12.935013771057129,
        8.003573417663574,
        47.3972282409668
      ],
      "min": [
        12.935013771057129,
        8.003573417663574,
        47.3972282409668
      ],
      "type": "VEC3"
    },
    {
      "bufferView": 4,
      "byteOffset": 2084,
      "componentType": 5126,
      "count": 2,
      "max": [
        16.66666603088379
      ],
      "min": [
        0.0
      ],
      "type": "SCALAR"
    },
    {
      "bufferView": 6,
      "byteOffset": 8080,
      "componentType": 5126,
      "count": 2,
      "max": [
        0.0,
        0.7071067690849304,
        0.7071067690849304,
        8.659560603426554e-17
      ],
      "min": [
        0.0,
        0.7071067690849304,
        0.7071067690849304,
        8.659560603426554e-17
      ],
      "type": "VEC4"
    }
  ],
  "animations": [
    {
      "channels": [
        {
          "sampler": 0,
          "target": {
            "node": 4,
            "path": "translation"
          }
        },
        {
          "sampler": 1,
          "target": {
            "node": 4,
            "path": "scale"
          }
        },
        {
          "sampler": 2,
          "target": {
            "node": 4,
            "path": "rotation"
          }
        },
        {
          "sampler": 3,
          "target": {
            "node": 7,
            "path": "translation"
          }
        },
        {
          "sampler": 4,
          "target": {
            "node": 7,
            "path": "scale"
          }
        },
        {
          "sampler": 5,
          "target": {
            "node": 7,
            "path": "rotation"
          }
        },
        {
          "sampler": 6,
          "target": {
            "node": 14,
            "path": "translation"
          }
        },
        {
          "sampler": 7,
          "target": {
            "node": 14,
            "path": "scale"
          }
        },
        {
          "sampler": 8,
          "target": {
            "node": 14,
            "path": "rotation"
          }
        },
        {
          "sampler": 9,
          "target": {
            "node": 24,
            "path": "translation"
          }
        },
        {
          "sampler": 10,
          "target": {
            "node": 24,
            "path": "scale"
          }
        },
        {
          "sampler": 11,
          "target": {
            "node": 24,
            "path": "rotation"
          }
        }
      ],
      "name": "loop",
      "samplers": [
        {
          "input": 66,
          "interpolation": "LINEAR",
          "output": 67
        },
        {
          "input": 68,
          "interpolation": "LINEAR",
          "output": 69
        },
        {
          "input": 70,
          "interpolation": "LINEAR",
          "output": 71
        },
        {
          "input": 72,
          "interpolation": "LINEAR",
          "output": 73
        },
        {
          "input": 74,
          "interpolation": "LINEAR",
          "output": 75
        },
        {
          "input": 76,
          "interpolation": "LINEAR",
          "output": 77
        },
        {
          "input": 78,
          "interpolation": "LINEAR",
          "output": 79
        },
        {
          "input": 80,
          "interpolation": "LINEAR",
          "output": 81
        },
        {
          "input": 82,
          "interpolation": "LINEAR",
          "output": 83
        },
        {
          "input": 84,
          "interpolation": "LINEAR",
          "output": 85
        },
        {
          "input": 86,
          "interpolation": "LINEAR",
          "output": 87
        },
        {
          "input": 88,
          "interpolation": "LINEAR",
          "output": 89
        }
      ]
    }
  ],
  "asset": {
    "extras": {
      "author": "Mustafa Küçükavşar (https://sketchfab.com/kobol1)",
      "license": "CC-BY-4.0 (http://creativecommons.org/licenses/by/4.0/)",
      "source": "https://sketchfab.com/3d-models/isf-space-station-5c045c3bc53447e190b6e3b96d829403",
      "title": "I.S.F Space Station"
    },
    "generator": "Sketchfab-14.62.0",
    "version": "2.0"
  },
  "bufferViews": [
    {
      "buffer": 0,
      "byteLength": 1177572,
      "name": "floatBufferViews",
      "target": 34963
    },
    {
      "buffer": 0,
      "byteLength": 1705512,
      "byteOffset": 1177572,
      "byteStride": 8,
      "name": "floatBufferViews",
      "target": 34962
    },
    {
      "buffer": 0,
      "byteLength": 5007600,
      "byteOffset": 2883084,
      "byteStride": 12,
      "name": "floatBufferViews",
      "target": 34962
    },
    {
      "buffer": 0,
      "byteLength": 495120,
      "byteOffset": 7890684,
      "byteStride": 16,
      "name": "floatBufferViews",
      "target": 34962
    },
    {
      "buffer": 0,
      "byteLength": 2092,
      "byteOffset": 8385804,
      "name": "floatBufferViews"
    },
    {
      "buffer": 0,
      "byteLength": 192,
      "byteOffset": 8387896,
      "byteStride": 12,
      "name": "floatBufferViews"
    },
    {
      "buffer": 0,
      "byteLength": 8112,
      "byteOffset": 8388088,
      "byteStride": 16,
      "name": "floatBufferViews"
    }
  ],
  "buffers": [
    {
      "byteLength": 8396200,
      "uri": "scene.bin"
    }
  ],
  "extensionsUsed": [
    "KHR_materials_emissive_strength"
  ],
  "images": [
    {
      "uri": "textures/01_-_Default_baseColor.jpeg"
    },
    {
      "uri": "textures/01_-_Default_metallicRoughness.png"
    },
    {
      "uri": "textures/01_-_Default_emissive.jpeg"
    },
    {
      "uri": "textures/01_-_Default_normal.png"
    },
    {
      "uri": "textures/pist_baseColor.jpeg"
    },
    {
      "uri": "textures/pist_metallicRoughness.png"
    },
    {
      "uri": "textures/pist_emissive.jpeg"
    },
    {
      "uri": "textures/pist_normal.png"
    },
    {
      "uri": "textures/pist2_baseColor.jpeg"
    },
    {
      "uri": "textures/pist2_metallicRoughness.png"
    },
    {
      "uri": "textures/Material_3_baseColor.jpeg"
    },
    {
      "uri": "textures/zemin1_baseColor.jpeg"
    },
    {
      "uri": "textures/zemin1_metallicRoughness.png"
    },
    {
      "uri": "textures/zemin1_emissive.jpeg"
    },
    {
      "uri": "textures/yazi_baseColor.jpeg"
    },
    {
      "uri": "textures/yazi_metallicRoughness.png"
    },
    {
      "uri": "textures/yazi_emissive.jpeg"
    },
    {
      "uri": "textures/yazi_normal.png"
    }
  ],
  "materials": [
    {
      "doubleSided": true,
      "emissiveFactor": [
        1.0,
        1.0,
        1.0
      ],
      "emissiveTexture": {
        "index": 2
      },
      "extensions": {
        "KHR_materials_emissive_strength": {
          "emissiveStrength": 10.0
        }
      },
      "name": "01_-_Default",
      "normalTexture": {
        "index": 3
      },
      "occlusionTexture": {
        "index": 1
      },
      "pbrMetallicRoughness": {
        "baseColorTexture": {
          "index": 0
        },
        "metallicRoughnessTexture": {
          "index": 1
        }
      }
    },
    {
      "doubleSided": true,
      "emissiveFactor": [
        0.0,
        0.7793623828378663,
        0.9406652057935939
      ],
      "extensions": {
        "KHR_materials_emissive_strength": {
          "emissiveStrength": 10.0
        }
      },
      "name": "gravty_isik",
      "pbrMetallicRoughness": {
        "baseColorFactor": [
          0.10588199999999996,
          0.10588199999999996,
          0.7098040000000001,
          1.0
        ],
        "metallicFactor": 0.0,
        "roughnessFactor": 0.6
      }
    },
    {
      "doubleSided": true,
      "emissiveFactor": [
        1.0,
        1.0,
        1.0
      ],
      "emissiveTexture": {
        "index": 6
      },
      "extensions": {
        "KHR_materials_emissive_strength": {
          "emissiveStrength": 8.9
        }
      },
      "name": "pist",
      "normalTexture": {
        "index": 7
      },
      "occlusionTexture": {
        "index": 8
      },
      "pbrMetallicRoughness": {
        "baseColorTexture": {
          "index": 4
        },
        "metallicRoughnessTexture": {
          "index": 5
        },
        "roughnessFactor": 0.7000000000000001
      }
    },
    {
      "doubleSided": true,
      "name": "pist2",
      "pbrMetallicRoughness": {
        "baseColorTexture": {
          "index": 9
        },
        "metallicRoughnessTexture": {
          "index": 10
        }
      }
    },
    {
      "doubleSided": true,
      "name": "Material_3",
      "pbrMetallicRoughness": {
        "baseColorTexture": {
          "index": 11
        },
        "metallicFactor": 0.0,
        "roughnessFactor": 0.6
      }
    },
    {
      "doubleSided": true,
      "emissiveFactor": [
        1.0,
        1.0,
        1.0
      ],
      "emissiveTexture": {
        "index": 14
      },
      "extensions": {
        "KHR_materials_emissive_strength": {
          "emissiveStrength": 7.800000000000001
        }
      },
      "name": "zemin1",
      "occlusionTexture": {
        "index": 13
      },
      "pbrMetallicRoughness": {
        "baseColorTexture": {
          "index": 12
        },
        "metallicRoughnessTexture": {
          "index": 13
        }
      }
    },
    {
      "doubleSided": true,
      "name": "demirzmn",
      "pbrMetallicRoughness": {
        "baseColorFactor": [
          0.005883969651704346,
          0.005883969651704346,
          0.005883969651704346,
          1.0
        ],
        "metallicFactor": 0.3276200460801404,
        "roughnessFactor": 0.6
      }
    },
    {
      "doubleSided": true,
      "emissiveFactor": [
        1.0,
        1.0,
        1.0
      ],
      "emissiveTexture": {
        "index": 17
      },
      "extensions": {
        "KHR_materials_emissive_strength": {
          "emissiveStrength": 1.5
        }
      },
      "name": "yazi",
      "normalTexture": {
        "index": 18
      },
      "occlusionTexture": {
        "index": 16
      },
      "pbrMetallicRoughness": {
        "baseColorTexture": {
          "index": 15
        },
        "metallicFactor": 0.0,
        "metallicRoughnessTexture": {
          "index": 16
        }
      }
    },
    {
      "doubleSided": true,
      "emissiveFactor": [
        0.9213560469775339,
        0.004871219847772709,
        0.004871219847772709
      ],
      "extensions": {
        "KHR_materials_emissive_strength": {
          "emissiveStrength": 5.4
        }
      },
      "name": "zmnisik",
      "pbrMetallicRoughness": {
        "baseColorFactor": [
          0.823529,
          0.0,
          0.0,
          1.0
        ],
        "metallicFactor": 0.0,
        "roughnessFactor": 0.6
      }
    },
    {
      "doubleSided": true,
      "name": "material",
      "pbrMetallicRoughness": {
        "baseColorTexture": {
          "index": 11
        },
        "metallicFactor": 0.0,
        "roughnessFactor": 0.6
      }
    }
  ],
  "meshes": [
    {
      "name": "Wheel_Gird01_01 - Default_0",
      "primitives": [
        {
          "attributes": {
            "NORMAL": 1,
            "POSITION": 0,
            "TANGENT": 2,
            "TEXCOORD_0": 3
          },
          "indices": 4,
          "material": 0,
          "mode": 4
        }
      ]
    },
    {
      "name": "Wheel_Gird01_gravty isik_0",
      "primitives": [
        {
          "attributes": {
            "NORMAL": 6,
            "POSITION": 5,
            "TEXCOORD_0": 7
          },
          "indices": 8,
          "material": 1,
          "mode": 4
        }
      ]
    },
    {
      "name": "Box004_01 - Default_0",
      "primitives": [
        {
          "attributes": {
            "NORMAL": 10,
            "POSITION": 9,
            "TANGENT": 11,
            "TEXCOORD_0": 12
          },
          "indices": 13,
          "material": 0,
          "mode": 4
        }
      ]
    },
    {
      "name": "Box005_pist_0",
      "primitives": [
        {
          "attributes": {
            "NORMAL": 15,
            "POSITION": 14,
            "TANGENT": 16,
            "TEXCOORD_0": 17
          },
          "indices": 18,
          "material": 2,
          "mode": 4
        }
      ]
    },
    {
      "name": "Box005_pist2_0",
      "primitives": [
        {
          "attributes": {
            "NORMAL": 20,
            "POSITION": 19,
            "TEXCOORD_0": 21
          },
          "indices": 22,
          "material": 3,
          "mode": 4
        }
      ]
    },
    {
      "name": "Gengon010_Material #3_0",
      "primitives": [
        {
          "attributes": {
            "NORMAL": 24,
            "POSITION": 23,
            "TEXCOORD_0": 25,
            "TEXCOORD_1": 26
          },
          "indices": 27,
          "material": 4,
          "mode": 4
        }
      ]
    },
    {
      "name": "Cylinder018_zemin1_0",
      "primitives": [
        {
          "attributes": {
            "NORMAL": 29,
            "POSITION": 28,
            "TEXCOORD_0": 30
          },
          "indices": 31,
          "material": 5,
          "mode": 4
        }
      ]
    },
    {
      "name": "Cylinder018_demirzmn_0",
      "primitives": [
        {
          "attributes": {
            "NORMAL": 33,
            "POSITION": 32,
            "TEXCOORD_0": 34
          },
          "indices": 35,
          "material": 6,
          "mode": 4
        }
      ]
    },
    {
      "name": "Cylinder018_yazi_0",
      "primitives": [
        {
          "attributes": {
            "NORMAL": 37,
            "POSITION": 36,
            "TANGENT": 38,
            "TEXCOORD_0": 39
          },
          "indices": 40,
          "material": 7,
          "mode": 4
        }
      ]
    },
    {
      "name": "Cylinder018_zmnisik_0",
      "primitives": [
        {
          "attributes": {
            "NORMAL": 42,
            "POSITION": 41,
            "TEXCOORD_0": 43
          },
          "indices": 44,
          "material": 8,
          "mode": 4
        }
      ]
    },
    {
      "name": "Gengon012_ara_0",
      "primitives": [
        {
          "attributes": {
            "NORMAL": 46,
            "POSITION": 45,
            "TEXCOORD_0": 47
          },
          "indices": 48,
          "material": 9,
          "mode": 4
        }
      ]
    },
    {
      "name": "Gengon012_ara_0",
      "primitives": [
        {
          "attributes": {
            "NORMAL": 50,
            "POSITION": 49,
            "TEXCOORD_0": 51
          },
          "indices": 52,
          "material": 9,
          "mode": 4
        }
      ]
    },
    {
      "name": "Gengon012_ara_0",
      "primitives": [
        {
          "attributes": {
            "NORMAL": 54,
            "POSITION": 53,
            "TEXCOORD_0": 55
          },
          "indices": 56,
          "material": 9,
          "mode": 4
        }
      ]
    },
    {
      "name": "Gengon012_gravty isik_0",
      "primitives": [
        {
          "attributes": {
            "NORMAL": 58,
            "POSITION": 57,
            "TEXCOORD_0": 59
          },
          "indices": 60,
          "material": 1,
          "mode": 4
        }
      ]
    },
    {
      "name": "Object002_01 - Default_0",
      "primitives": [
        {
          "attributes": {
            "NORMAL": 62,
            "POSITION": 61,
            "TANGENT": 63,
            "TEXCOORD_0": 64
          },
          "indices": 65,
          "material": 0,
          "mode": 4
        }
      ]
    }
  ],
  "nodes": [
    {
      "children": [
        1
      ],
      "matrix": [
        0.00368186691775918,
        0.0,
        0.0,
        0.0,
        0.0,
        2.6226359780554977e-05,
        -0.0036817734293456694,
        0.0,
        0.0,
        0.0036817734293456694,
        2.6226359780554977e-05,
        0.0,
        0.0,
        0.0,
        0.0,
        1.0
      ],
      "name": "Sketchfab_model"
    },
    {
      "children": [
        2
      ],
      "matrix": [
        1.0,
        0.0,
        0.0,
        0.0,
        0.0,
        0.0,
        1.0,
        0.0,
        0.0,
        -1.0,
        0.0,
        0.0,
        0.0,
        0.0,
        0.0,
        1.0
      ],
      "name": "49ded54e90384c1d9fc64258ac4b084c.fbx"
    },
    {
      "children": [
        3
      ],
      "name": "Object_2"
    },
    {
      "children": [
        4,
        7,
        9,
        12,
        14,
        19,
        24,
        25
      ],
      "name": "RootNode"
    },
    {
      "children": [
        5,
        6
      ],
      "name": "Wheel_Gird01",
      "rotation": [
        -8.61382645211961e-08,
        0.4659748077392578,
        4.536432030022297e-08,
        0.8847981095314026
      ],
      "scale": [
        0.3188905715942383,
        0.16179820895195007,
        0.3188904821872711
      ],
      "translation": [
        1321.791259765625,
        529.8308715820313,
        -312.4127197265625
      ]
    },
    {
      "mesh": 0,
      "name": "Wheel_Gird01_01 - Default_0"
    },
    {
      "mesh": 1,
      "name": "Wheel_Gird01_gravty isik_0"
    },
    {
      "children": [
        8
      ],
      "name": "Box004",
      "rotation": [
        -0.7071068286895752,
        -0.0,
        0.0,
        0.7071068286895752
      ],
      "scale": [
        2.5399999618530273,
        2.5399999618530273,
        2.5399999618530273
      ],
      "translation": [
        2647.61376953125,
        352.662109375,
        -151.6376495361328
      ]
    },
    {
      "mesh": 2,
      "name": "Box004_01 - Default_0"
    },
    {
      "children": [
        10,
        11
      ],
      "name": "Box005",
      "rotation": [
        -0.7071068286895752,
        -0.0,
        0.0,
        0.7071068286895752
      ],
      "scale": [
        5.392449855804443,
        5.392449855804443,
        5.392449855804443
      ],
      "translation": [
        3767.57568359375,
        -143.2737579345703,
        702.0549926757813
      ]
    },
    {
      "mesh": 3,
      "name": "Box005_pist_0"
    },
    {
      "mesh": 4,
      "name": "Box005_pist2_0"
    },
    {
      "children": [
        13
      ],
      "name": "Gengon010",
      "rotation": [
        -0.4559202790260315,
        -0.5675768852233887,
        0.6790155172348022,
        -0.0945049300789833
      ],
      "scale": [
        2.743887424468994,
        2.7438857555389404,
        2.7438881397247314
      ],
      "translation": [
        2970.14013671875,
        1849.1148681640625,
        -4.008445739746094
      ]
    },
    {
      "mesh": 5,
      "name": "Gengon010_Material #3_0"
    },
    {
      "children": [
        15,
        16,
        17,
        18
      ],
      "name": "Cylinder018",
      "rotation": [
        -0.5000001192092896,
        0.4999999701976776,
        0.4999999701976776,
        0.5000001192092896
      ],
      "scale": [
        0.31583067774772644,
        0.31583067774772644,
        0.31583067774772644
      ],
      "translation": [
        1785.407958984375,
        139.84759521484375,
        -262.0418395996094
      ]
    },
    {
      "mesh": 6,
      "name": "Cylinder018_zemin1_0"
    },
    {
      "mesh": 7,
      "name": "Cylinder018_demirzmn_0"
    },
    {
      "mesh": 8,
      "name": "Cylinder018_yazi_0"
    },
    {
      "mesh": 9,
      "name": "Cylinder018_zmnisik_0"
    },
    {
      "children": [
        20,
        21,
        22,
        23
      ],
      "name": "Gengon012",
      "rotation": [
        -0.5457302927970886,
        -0.4275813400745392,
        0.6483393907546997,
        -0.31465646624565125
      ],
      "scale": [
        2.743887424468994,
        2.7438857555389404,
        2.7438881397247314
      ],
      "translation": [
        2893.3193359375,
        2178.8427734375,
        49.625213623046875
      ]
    },
    {
      "mesh": 10,
      "name": "Gengon012_ara_0"
    },
    {
      "mesh": 11,
      "name": "Gengon012_ara_0"
    },
    {
      "mesh": 12,
      "name": "Gengon012_ara_0"
    },
    {
      "mesh": 13,
      "name": "Gengon012_gravty isik_0"
    },
    {
      "name": "Box010",
      "rotation": [
        3.090862321641907e-08,
        0.7071068286895752,
        0.7071068286895752,
        -3.090862321641907e-08
      ],
      "scale": [
        12.935013771057129,
        8.003573417663574,
        47.3972282409668
      ],
      "translation": [
        1540.74853515625,
        2201.34423828125,
        -262.9139404296875
      ]
    },
    {
      "children": [
        26
      ],
      "name": "Object002",
      "rotation": [
        5.338508302088485e-08,
        0.7071068286895752,
        0.7071068286895752,
        -5.338508302088485e-08
      ],
      "scale": [
        12.935013771057129,
        8.003573417663574,
        47.3972282409668
      ],
      "translation": [
        1540.74853515625,
        2201.34423828125,
        -262.9139404296875
      ]
    },
    {
      "mesh": 14,
      "name": "Object002_01 - Default_0"
    }
  ],
  "samplers": [
    {
      "magFilter": 9729,
      "minFilter": 9987,
      "wrapS": 10497,
      "wrapT": 10497
    },
    {
      "magFilter": 9729,
      "minFilter": 9987,
      "wrapS": 33648,
      "wrapT": 33071
    }
  ],
  "scene": 0,
  "scenes": [
    {
      "name": "Sketchfab_Scene",
      "nodes": [
        0
      ]
    }
  ],
  "textures": [
    {
      "sampler": 0,
      "source": 0
    },
    {
      "sampler": 0,
      "source": 1
    },
    {
      "sampler": 0,
      "source": 2
    },
    {
      "sampler": 0,
      "source": 3
    },
    {
      "sampler": 0,
      "source": 4
    },
    {
      "sampler": 1,
      "source": 5
    },
    {
      "sampler": 0,
      "source": 6
    },
    {
      "sampler": 0,
      "source": 7
    },
    {
      "sampler": 0,
      "source": 5
    },
    {
      "sampler": 0,
      "source": 8
    },
    {
      "sampler": 0,
      "source": 9
    },
    {
      "sampler": 0,
      "source": 10
    },
    {
      "sampler": 0,
      "source": 11
    },
    {
      "sampler": 0,
      "source": 12
    },
    {
      "sampler": 0,
      "source": 13
    },
    {
      "sampler": 0,
      "source": 14
    },
    {
      "sampler": 0,
      "source": 15
    },
    {
      "sampler": 0,
      "source": 16
    },
    {
      "sampler": 0,
      "source": 17
    }
  ]
}
