{
  "accessors": [
    {
      "bufferView": 2,
      "componentType": 5126,
      "count": 21559,
      "max": [
        182.95263671875,
        348.40838623046875,
        99.38125610351563
      ],
      "min": [
        -182.95263671875,
        -7.68899917602539e-06,
        -99.38126373291016
      ],
      "type": "VEC3"
    },
    {
      "bufferView": 2,
      "byteOffset": 258708,
      "componentType": 5126,
      "count": 21559,
      "max": [
        1.0,
        1.0,
        1.0
      ],
      "min": [
        -1.0,
        -1.0,
        -1.0
      ],
      "type": "VEC3"
    },
    {
      "bufferView": 3,
      "componentType": 5126,
      "count": 21559,
      "max": [
        1.0,
        1.0,
        1.0,
        1.0
      ],
      "min": [
        -1.0,
        -1.0,
        -1.0,
        -1.0
      ],
      "type": "VEC4"
    },
    {
      "bufferView": 1,
      "componentType": 5126,
      "count": 21559,
      "max": [
        0.990632951259613,
        0.9999244809150696
      ],
      "min": [
        7.551211456302553e-05,
        8.434303890680894e-05
      ],
      "type": "VEC2"
    },
    {
      "bufferView": 0,
      "componentType": 5125,
      "count": 22764,
      "type": "SCALAR"
    },
    {
      "bufferView": 2,
      "byteOffset": 517416,
      "componentType": 5126,
      "count": 2214,
      "max": [
        100.52230072021484,
        268.2431335449219,
        12.997015953063965
      ],
      "min": [
        -103.5223388671875,
        134.24208068847656,
        -12.997068405151367
      ],
      "type": "VEC3"
    },
    {
      "bufferView": 2,
      "byteOffset": 543984,
      "componentType": 5126,
      "count": 2214,
      "max": [
        1.0,
        1.0,
        1.0
      ],
      "min": [
        -1.0,
        -1.0,
        -1.0
      ],
      "type": "VEC3"
    },
    {
      "bufferView": 3,
      "byteOffset": 344944,
      "componentType": 5126,
      "count": 2214,
      "max": [
        0.9959003925323486,
        1.0,
        1.0,
        1.0
      ],
      "min": [
        -1.0,
        -0.9999003410339355,
        -1.0,
        -1.0
      ],
      "type": "VEC4"
    },
    {
      "bufferView": 1,
      "byteOffset": 172472,
      "componentType": 5126,
      "count": 2214,
      "max": [
        0.7195479869842529,
        0.8297734260559082
      ],
      "min": [
        8.242846524808556e-05,
        7.551211456302553e-05
      ],
      "type": "VEC2"
    },
    {
      "bufferView": 0,
      "byteOffset": 91056,
      "componentType": 5125,
      "count": 2310,
      "type": "SCALAR"
    },
    {
      "bufferView": 2,
      "byteOffset": 570552,
      "componentType": 5126,
      "count": 16,
      "max": [
        74.8494644165039,
        194.77137756347656,
        7.3450822830200195
      ],
      "min": [
        -93.31867218017578,
        181.26681518554688,
        -7.47047758102417
      ],
      "type": "VEC3"
    },
    {
      "bufferView": 2,
      "byteOffset": 570744,
      "componentType": 5126,
      "count": 16,
      "max": [
        0.0026366673409938812,
        8.826944508655288e-08,
        1.0
      ],
      "min": [
        -0.002636774443089962,
        -0.014838794246315956,
        -1.0
      ],
      "type": "VEC3"
    },
    {
      "bufferView": 3,
      "byteOffset": 380368,
      "componentType": 5126,
      "count": 16,
      "max": [
        1.0,
        0.01150770578533411,
        0.002807662822306156,
        1.0
      ],
      "min": [
        -1.0,
        -6.779463546990883e-06,
        -0.0028075617738068104,
        1.0
      ],
      "type": "VEC4"
    },
    {
      "bufferView": 1,
      "byteOffset": 190184,
      "componentType": 5126,
      "count": 16,
      "max": [
        0.6656957864761353,
        0.8297734260559082
      ],
      "min": [
        0.0009708702564239502,
        0.2923591732978821
      ],
      "type": "VEC2"
    },
    {
      "bufferView": 0,
      "byteOffset": 100296,
      "componentType": 5125,
      "count": 24,
      "type": "SCALAR"
    },
    {
      "bufferView": 2,
      "byteOffset": 570936,
      "componentType": 5126,
      "count": 1828,
      "max": [
        103.52228546142578,
        163.21376037597656,
        12.997048377990723
      ],
      "min": [
        -8.695676803588867,
        -2.999976634979248,
        -12.997407913208008
      ],
      "type": "VEC3"
    },
    {
      "bufferView": 2,
      "byteOffset": 592872,
      "componentType": 5126,
      "count": 1828,
      "max": [
        1.0,
        1.0,
        1.0
      ],
      "min": [
        -1.0,
        -1.0,
        -1.0
      ],
      "type": "VEC3"
    },
    {
      "bufferView": 3,
      "byteOffset": 380624,
      "componentType": 5126,
      "count": 1828,
      "max": [
        1.0,
        1.0,
        1.0,
        1.0
      ],
      "min": [
        -1.0,
        -1.0,
        -1.0,
        -1.0
      ],
      "type": "VEC4"
    },
    {
      "bufferView": 1,
      "byteOffset": 190312,
      "componentType": 5126,
      "count": 1828,
      "max": [
        0.9770454168319702,
        0.94239342212677
      ],
      "min": [
        7.551211456302553e-05,
        0.17820338904857635
      ],
      "type": "VEC2"
    },
    {
      "bufferView": 0,
      "byteOffset": 100392,
      "componentType": 5125,
      "count": 1950,
      "type": "SCALAR"
    },
    {
      "bufferView": 2,
      "byteOffset": 614808,
      "componentType": 5126,
      "count": 1320,
      "max": [
        2.205740565841552e-05,
        160.2138214111328,
        6.981809139251709
      ],
      "min": [
        -100.52229309082031,
        2.3113778297556564e-05,
        -7.309823036193848
      ],
      "type": "VEC3"
    },
    {
      "bufferView": 2,
      "byteOffset": 630648,
      "componentType": 5126,
      "count": 1320,
      "max": [
        1.0,
        1.0,
        1.0
      ],
      "min": [
        -1.0,
        -1.0,
        -1.0
      ],
      "type": "VEC3"
    },
    {
      "bufferView": 3,
      "byteOffset": 409872,
      "componentType": 5126,
      "count": 1320,
      "max": [
        1.0,
        1.0,
        0.999991774559021,
        1.0
      ],
      "min": [
        -0.9760234355926514,
        -0.9142638444900513,
        -0.999991774559021,
        -1.0
      ],
      "type": "VEC4"
    },
    {
      "bufferView": 1,
      "byteOffset": 204936,
      "componentType": 5126,
      "count": 1320,
      "max": [
        0.9770454168319702,
        0.658216118812561
      ],
      "min": [
        0.4638174772262573,
        0.00010678460239432752
      ],
      "type": "VEC2"
    },
    {
      "bufferView": 0,
      "byteOffset": 108192,
      "componentType": 5125,
      "count": 1362,
      "type": "SCALAR"
    },
    {
      "bufferView": 2,
      "byteOffset": 646488,
      "componentType": 5126,
      "count": 136,
      "max": [
        7.795817852020264,
        7.945583343505859,
        9.636841773986816
      ],
      "min": [
        -7.795817852020264,
        -7.945583343505859,
        -9.636841773986816
      ],
      "type": "VEC3"
    },
    {
      "bufferView": 2,
      "byteOffset": 648120,
      "componentType": 5126,
      "count": 136,
      "max": [
        1.0,
        1.0,
        1.0
      ],
      "min": [
        -1.0,
        -1.0,
        -1.0
      ],
      "type": "VEC3"
    },
    {
      "bufferView": 3,
      "byteOffset": 430992,
      "componentType": 5126,
      "count": 136,
      "max": [
        0.6057022213935852,
        0.0018972863908857107,
        1.0,
        1.0
      ],
      "min": [
        -0.7918295860290527,
        -1.0,
        -1.0,
        -1.0
      ],
      "type": "VEC4"
    },
    {
      "bufferView": 1,
      "byteOffset": 215496,
      "componentType": 5126,
      "count": 136,
      "max": [
        0.15068025887012482,
        0.9998931884765625
      ],
      "min": [
        7.551211456302553e-05,
        0.11839871853590012
      ],
      "type": "VEC2"
    },
    {
      "bufferView": 0,
      "byteOffset": 113640,
      "componentType": 5125,
      "count": 156,
      "type": "SCALAR"
    },
    {
      "bufferView": 2,
      "byteOffset": 649752,
      "componentType": 5126,
      "count": 145,
      "max": [
        -1.5306421518325806,
        31.847810745239258,
        9.63684368133545
      ],
      "min": [
        -17.122276306152344,
        15.956657409667969,
        -9.636841773986816
      ],
      "type": "VEC3"
    },
    {
      "bufferView": 2,
      "byteOffset": 651492,
      "componentType": 5126,
      "count": 145,
      "max": [
        1.0,
        1.0,
        1.0
      ],
      "min": [
        -1.0,
        -1.0,
        -1.0
      ],
      "type": "VEC3"
    },
    {
      "bufferView": 3,
      "byteOffset": 433168,
      "componentType": 5126,
      "count": 145,
      "max": [
        0.60555499792099,
        0.0003883102326653898,
        1.0,
        1.0
      ],
      "min": [
        -0.7921607494354248,
        -1.0,
        -1.0,
        -1.0
      ],
      "type": "VEC4"
    },
    {
      "bufferView": 1,
      "byteOffset": 216584,
      "componentType": 5126,
      "count": 145,
      "max": [
        0.43064385652542114,
        0.9999244809150696
      ],
      "min": [
        7.551211456302553e-05,
        0.15783803164958954
      ],
      "type": "VEC2"
    },
    {
      "bufferView": 0,
      "byteOffset": 114264,
      "componentType": 5125,
      "count": 156,
      "type": "SCALAR"
    },
    {
      "bufferView": 2,
      "byteOffset": 653232,
      "componentType": 5126,
      "count": 147,
      "max": [
        7.945583343505859,
        7.7958221435546875,
        9.636842727661133
      ],
      "min": [
        -7.945583343505859,
        -7.7958221435546875,
        -9.636842727661133
      ],
      "type": "VEC3"
    },
    {
      "bufferView": 2,
      "byteOffset": 654996,
      "componentType": 5126,
      "count": 147,
      "max": [
        1.0,
        1.0,
        1.0
      ],
      "min": [
        -1.0,
        -1.0,
        -1.0
      ],
      "type": "VEC3"
    },
    {
      "bufferView": 3,
      "byteOffset": 435488,
      "componentType": 5126,
      "count": 147,
      "max": [
        1.179735775735935e-07,
        0.7233518362045288,
        1.0,
        1.0
      ],
      "min": [
        -1.0,
        -0.6625444293022156,
        -1.0,
        -1.0
      ],
      "type": "VEC4"
    },
    {
      "bufferView": 1,
      "byteOffset": 217744,
      "componentType": 5126,
      "count": 147,
      "max": [
        0.4136599004268646,
        0.9999244809150696
      ],
      "min": [
        0.03423033654689789,
        0.3287616968154907
      ],
      "type": "VEC2"
    },
    {
      "bufferView": 0,
      "byteOffset": 114888,
      "componentType": 5125,
      "count": 156,
      "type": "SCALAR"
    },
    {
      "bufferView": 2,
      "byteOffset": 656760,
      "componentType": 5126,
      "count": 148,
      "max": [
        7.945585250854492,
        7.7958221435546875,
        9.636842727661133
      ],
      "min": [
        -7.945585250854492,
        -7.7958221435546875,
        -9.636842727661133
      ],
      "type": "VEC3"
    },
    {
      "bufferView": 2,
      "byteOffset": 658536,
      "componentType": 5126,
      "count": 148,
      "max": [
        1.0,
        1.0,
        1.0
      ],
      "min": [
        -1.0,
        -1.0,
        -1.0
      ],
      "type": "VEC3"
    },
    {
      "bufferView": 3,
      "byteOffset": 437840,
      "componentType": 5126,
      "count": 148,
      "max": [
        0.9962024092674255,
        1.0,
        1.0,
        1.0
      ],
      "min": [
        -0.0018986868672072887,
        -0.7920550107955933,
        -1.0,
        -1.0
      ],
      "type": "VEC4"
    },
    {
      "bufferView": 1,
      "byteOffset": 218920,
      "componentType": 5126,
      "count": 148,
      "max": [
        0.5239595770835876,
        0.9013218283653259
      ],
      "min": [
        0.05489964038133621,
        0.23433735966682434
      ],
      "type": "VEC2"
    },
    {
      "bufferView": 0,
      "byteOffset": 115512,
      "componentType": 5125,
      "count": 156,
      "type": "SCALAR"
    },
    {
      "bufferView": 4,
      "componentType": 5126,
      "count": 9,
      "max": [
        1.0,
        0.0,
        0.0,
        0.0,
        0.0,
        1.0,
        0.0,
        0.0,
        0.0,
        0.0,
        1.0,
        0.0,
        0.0,
        0.0,
        0.0,
        1.0
      ],
      "min": [
        1.0,
        0.0,
        0.0,
        0.0,
        0.0,
        1.0,
        0.0,
        0.0,
        0.0,
        0.0,
        1.0,
        0.0,
        0.0,
        0.0,
        0.0,
        1.0
      ],
      "type": "MAT4"
    },
    {
      "bufferView": 5,
      "componentType": 5126,
      "count": 56,
      "max": [
        5.333333492279053
      ],
      "min": [
        0.0
      ],
      "type": "SCALAR"
    },
    {
      "bufferView": 6,
      "componentType": 5126,
      "count": 56,
      "max": [
        0.0,
        130.03887939453125,
        0.0
      ],
      "min": [
        0.0,
        -0.04372972622513771,
        0.0
      ],
      "type": "VEC3"
    },
    {
      "bufferView": 5,
      "byteOffset": 224,
      "componentType": 5126,
      "count": 56,
      "max": [
        5.333333492279053
      ],
      "min": [
        0.0
      ],
      "type": "SCALAR"
    },
    {
      "bufferView": 6,
      "byteOffset": 672,
      "componentType": 5126,
      "count": 56,
      "max": [
        103.03079986572266,
        0.0,
        0.0
      ],
      "min": [
        -0.03464740142226219,
        0.0,
        0.0
      ],
      "type": "VEC3"
    },
    {
      "bufferView": 5,
      "byteOffset": 448,
      "componentType": 5126,
      "count": 59,
      "max": [
        5.333333492279053
      ],
      "min": [
        0.0
      ],
      "type": "SCALAR"
    },
    {
      "bufferView": 6,
      "byteOffset": 1344,
      "componentType": 5126,
      "count": 59,
      "max": [
        0.0071262470446527,
        0.0,
        0.0
      ],
      "min": [
        -103.03206634521484,
        0.0,
        0.0
      ],
      "type": "VEC3"
    },
    {
      "bufferView": 5,
      "byteOffset": 684,
      "componentType": 5126,
      "count": 96,
      "max": [
        5.333333492279053
      ],
      "min": [
        0.0
      ],
      "type": "SCALAR"
    },
    {
      "bufferView": 6,
      "byteOffset": 2052,
      "componentType": 5126,
      "count": 96,
      "max": [
        -9.324662208557129,
        112.31549072265625,
        9.5367431640625e-07
      ],
      "min": [
        -122.35852813720703,
        112.31549072265625,
        9.5367431640625e-07
      ],
      "type": "VEC3"
    },
    {
      "bufferView": 5,
      "byteOffset": 1068,
      "componentType": 5126,
      "count": 93,
      "max": [
        5.333333492279053
      ],
      "min": [
        0.0
      ],
      "type": "SCALAR"
    },
    {
      "bufferView": 6,
      "byteOffset": 3204,
      "componentType": 5126,
      "count": 93,
      "max": [
        3.552713678800501e-15,
        7.105427357601002e-15,
        0.0
      ],
      "min": [
        -113.03206634521484,
        -1.591615396065709e-14,
        0.0
      ],
      "type": "VEC3"
    },
    {
      "bufferView": 5,
      "byteOffset": 1440,
      "componentType": 5126,
      "count": 93,
      "max": [
        5.333333492279053
      ],
      "min": [
        0.0
      ],
      "type": "SCALAR"
    },
    {
      "bufferView": 6,
      "byteOffset": 4320,
      "componentType": 5126,
      "count": 93,
      "max": [
        170.16477966308594,
        159.9282684326172,
        4.76837158203125e-07
      ],
      "min": [
        67.0993423461914,
        149.92466735839844,
        4.76837158203125e-07
      ],
      "type": "VEC3"
    },
    {
      "bufferView": 5,
      "byteOffset": 1812,
      "componentType": 5126,
      "count": 96,
      "max": [
        5.333333492279053
      ],
      "min": [
        0.0
      ],
      "type": "SCALAR"
    },
    {
      "bufferView": 6,
      "byteOffset": 5436,
      "componentType": 5126,
      "count": 96,
      "max": [
        -67.12683868408203,
        159.9282684326172,
        -1.430511474609375e-06
      ],
      "min": [
        -170.16603088378906,
        149.92466735839844,
        -1.430511474609375e-06
      ],
      "type": "VEC3"
    },
    {
      "bufferView": 5,
      "byteOffset": 2196,
      "componentType": 5126,
      "count": 56,
      "max": [
        5.333333492279053
      ],
      "min": [
        0.0
      ],
      "type": "SCALAR"
    },
    {
      "bufferView": 6,
      "byteOffset": 6588,
      "componentType": 5126,
      "count": 56,
      "max": [
        4.440892098500626e-16,
        353.4170837402344,
        0.0
      ],
      "min": [
        4.440892098500626e-16,
        223.3345184326172,
        0.0
      ],
      "type": "VEC3"
    },
    {
      "bufferView": 5,
      "byteOffset": 2420,
      "componentType": 5126,
      "count": 39,
      "max": [
        5.333333492279053
      ],
      "min": [
        0.0
      ],
      "type": "SCALAR"
    },
    {
      "bufferView": 6,
      "byteOffset": 7260,
      "componentType": 5126,
      "count": 39,
      "max": [
        79.56791687011719,
        0.000544642738532275,
        -7.105360441998169e-15
      ],
      "min": [
        70.03592681884766,
        -3.0347795486450195,
        -7.477080850900718e-15
      ],
      "type": "VEC3"
    },
    {
      "bufferView": 5,
      "byteOffset": 2576,
      "componentType": 5126,
      "count": 56,
      "max": [
        5.333333492279053
      ],
      "min": [
        0.0
      ],
      "type": "SCALAR"
    },
    {
      "bufferView": 6,
      "byteOffset": 7728,
      "componentType": 5126,
      "count": 56,
      "max": [
        194.51719665527344,
        80.89769744873047,
        0.0
      ],
      "min": [
        91.45175170898438,
        80.89769744873047,
        0.0
      ],
      "type": "VEC3"
    },
    {
      "bufferView": 5,
      "byteOffset": 2800,
      "componentType": 5126,
      "count": 39,
      "max": [
        5.333333492279053
      ],
      "min": [
        0.0
      ],
      "type": "SCALAR"
    },
    {
      "bufferView": 6,
      "byteOffset": 8400,
      "componentType": 5126,
      "count": 39,
      "max": [
        79.56807708740234,
        0.0005445586866699159,
        7.105427357601002e-15
      ],
      "min": [
        70.03607940673828,
        -3.0347678661346436,
        7.105427357601002e-15
      ],
      "type": "VEC3"
    },
    {
      "bufferView": 5,
      "byteOffset": 2956,
      "componentType": 5126,
      "count": 39,
      "max": [
        5.333333492279053
      ],
      "min": [
        0.0
      ],
      "type": "SCALAR"
    },
    {
      "bufferView": 6,
      "byteOffset": 8868,
      "componentType": 5126,
      "count": 39,
      "max": [
        53.81596755981445,
        -58.30995559692383,
        1.4210854715202004e-14
      ],
      "min": [
        50.78065490722656,
        -67.84194946289063,
        1.4210854715202004e-14
      ],
      "type": "VEC3"
    },
    {
      "bufferView": 5,
      "byteOffset": 3112,
      "componentType": 5126,
      "count": 36,
      "max": [
        5.333333492279053
      ],
      "min": [
        0.0
      ],
      "type": "SCALAR"
    },
    {
      "bufferView": 6,
      "byteOffset": 9336,
      "componentType": 5126,
      "count": 36,
      "max": [
        -30.257837295532227,
        -84.63726806640625,
        0.0
      ],
      "min": [
        -33.2926025390625,
        -94.16754150390625,
        0.0
      ],
      "type": "VEC3"
    },
    {
      "bufferView": 5,
      "byteOffset": 3256,
      "componentType": 5126,
      "count": 59,
      "max": [
        5.333333492279053
      ],
      "min": [
        0.0
      ],
      "type": "SCALAR"
    },
    {
      "bufferView": 6,
      "byteOffset": 9768,
      "componentType": 5126,
      "count": 59,
      "max": [
        -91.4792709350586,
        80.89769744873047,
        0.0
      ],
      "min": [
        -194.51846313476563,
        80.89769744873047,
        0.0
      ],
      "type": "VEC3"
    },
    {
      "bufferView": 5,
      "byteOffset": 3492,
      "componentType": 5126,
      "count": 53,
      "max": [
        5.333333492279053
      ],
      "min": [
        0.0
      ],
      "type": "SCALAR"
    },
    {
      "bufferView": 6,
      "byteOffset": 10476,
      "componentType": 5126,
      "count": 53,
      "max": [
        4.440892098500626e-16,
        353.37823486328125,
        0.0
      ],
      "min": [
        4.440892098500626e-16,
        223.3782501220703,
        0.0
      ],
      "type": "VEC3"
    },
    {
      "bufferView": 5,
      "byteOffset": 3704,
      "componentType": 5126,
      "count": 35,
      "max": [
        5.333333492279053
      ],
      "min": [
        0.0
      ],
      "type": "SCALAR"
    },
    {
      "bufferView": 6,
      "byteOffset": 11112,
      "componentType": 5126,
      "count": 35,
      "max": [
        80.97077178955078,
        30.694129943847656,
        1.4210854715202004e-14
      ],
      "min": [
        70.97077178955078,
        30.694129943847656,
        1.4210854715202004e-14
      ],
      "type": "VEC3"
    },
    {
      "bufferView": 5,
      "byteOffset": 3844,
      "componentType": 5126,
      "count": 34,
      "max": [
        5.333333492279053
      ],
      "min": [
        0.0
      ],
      "type": "SCALAR"
    },
    {
      "bufferView": 6,
      "byteOffset": 11532,
      "componentType": 5126,
      "count": 34,
      "max": [
        80.54722595214844,
        -57.40388870239258,
        0.0
      ],
      "min": [
        70.54722595214844,
        -57.40388870239258,
        0.0
      ],
      "type": "VEC3"
    },
    {
      "bufferView": 5,
      "byteOffset": 3980,
      "componentType": 5126,
      "count": 35,
      "max": [
        5.333333492279053
      ],
      "min": [
        0.0
      ],
      "type": "SCALAR"
    },
    {
      "bufferView": 6,
      "byteOffset": 11940,
      "componentType": 5126,
      "count": 35,
      "max": [
        24.142196655273438,
        75.81529998779297,
        7.105427357601002e-15
      ],
      "min": [
        24.142196655273438,
        65.81529998779297,
        7.105427357601002e-15
      ],
      "type": "VEC3"
    },
    {
      "bufferView": 5,
      "byteOffset": 4120,
      "componentType": 5126,
      "count": 55,
      "max": [
        5.333333492279053
      ],
      "min": [
        0.0
      ],
      "type": "SCALAR"
    },
    {
      "bufferView": 6,
      "byteOffset": 12360,
      "componentType": 5126,
      "count": 55,
      "max": [
        -91.48639678955078,
        80.89769744873047,
        0.0
      ],
      "min": [
        -194.48638916015625,
        80.89769744873047,
        0.0
      ],
      "type": "VEC3"
    },
    {
      "bufferView": 5,
      "byteOffset": 4340,
      "componentType": 5126,
      "count": 35,
      "max": [
        5.333333492279053
      ],
      "min": [
        0.0
      ],
      "type": "SCALAR"
    },
    {
      "bufferView": 6,
      "byteOffset": 13020,
      "componentType": 5126,
      "count": 35,
      "max": [
        -24.142242431640625,
        75.81511688232422,
        1.4210854715202004e-14
      ],
      "min": [
        -24.142242431640625,
        65.81511688232422,
        1.4210854715202004e-14
      ],
      "type": "VEC3"
    },
    {
      "bufferView": 5,
      "byteOffset": 4480,
      "componentType": 5126,
      "count": 53,
      "max": [
        5.333333492279053
      ],
      "min": [
        0.0
      ],
      "type": "SCALAR"
    },
    {
      "bufferView": 6,
      "byteOffset": 13440,
      "componentType": 5126,
      "count": 53,
      "max": [
        194.48638916015625,
        80.89769744873047,
        -7.105427357601002e-15
      ],
      "min": [
        91.48639678955078,
        80.89769744873047,
        -7.105427357601002e-15
      ],
      "type": "VEC3"
    },
    {
      "bufferView": 5,
      "byteOffset": 4692,
      "componentType": 5126,
      "count": 56,
      "max": [
        10.666666984558105
      ],
      "min": [
        5.333333492279053
      ],
      "type": "SCALAR"
    },
    {
      "bufferView": 6,
      "byteOffset": 14076,
      "componentType": 5126,
      "count": 56,
      "max": [
        0.0,
        130.03887939453125,
        0.0
      ],
      "min": [
        0.0,
        -0.04372990131378174,
        0.0
      ],
      "type": "VEC3"
    },
    {
      "bufferView": 5,
      "byteOffset": 4916,
      "componentType": 5126,
      "count": 56,
      "max": [
        10.666666984558105
      ],
      "min": [
        5.333333492279053
      ],
      "type": "SCALAR"
    },
    {
      "bufferView": 6,
      "byteOffset": 14748,
      "componentType": 5126,
      "count": 56,
      "max": [
        103.03079986572266,
        0.0,
        0.0
      ],
      "min": [
        -0.034647539258003235,
        0.0,
        0.0
      ],
      "type": "VEC3"
    },
    {
      "bufferView": 5,
      "byteOffset": 5140,
      "componentType": 5126,
      "count": 59,
      "max": [
        10.666666984558105
      ],
      "min": [
        5.333333492279053
      ],
      "type": "SCALAR"
    },
    {
      "bufferView": 6,
      "byteOffset": 15420,
      "componentType": 5126,
      "count": 59,
      "max": [
        0.007126009091734886,
        0.0,
        0.0
      ],
      "min": [
        -103.03206634521484,
        0.0,
        0.0
      ],
      "type": "VEC3"
    },
    {
      "bufferView": 5,
      "byteOffset": 5376,
      "componentType": 5126,
      "count": 96,
      "max": [
        10.666666984558105
      ],
      "min": [
        5.333333492279053
      ],
      "type": "SCALAR"
    },
    {
      "bufferView": 6,
      "byteOffset": 16128,
      "componentType": 5126,
      "count": 96,
      "max": [
        -9.324662208557129,
        112.31549072265625,
        9.5367431640625e-07
      ],
      "min": [
        -122.35852813720703,
        112.31549072265625,
        9.5367431640625e-07
      ],
      "type": "VEC3"
    },
    {
      "bufferView": 5,
      "byteOffset": 5760,
      "componentType": 5126,
      "count": 93,
      "max": [
        10.666666984558105
      ],
      "min": [
        5.333333492279053
      ],
      "type": "SCALAR"
    },
    {
      "bufferView": 6,
      "byteOffset": 17280,
      "componentType": 5126,
      "count": 93,
      "max": [
        3.552713678800501e-15,
        7.958076980328545e-15,
        0.0
      ],
      "min": [
        -113.03206634521484,
        -1.512034956605273e-14,
        0.0
      ],
      "type": "VEC3"
    },
    {
      "bufferView": 5,
      "byteOffset": 6132,
      "componentType": 5126,
      "count": 93,
      "max": [
        10.666666984558105
      ],
      "min": [
        5.333333492279053
      ],
      "type": "SCALAR"
    },
    {
      "bufferView": 6,
      "byteOffset": 18396,
      "componentType": 5126,
      "count": 93,
      "max": [
        170.16477966308594,
        159.9282684326172,
        4.76837158203125e-07
      ],
      "min": [
        67.0993423461914,
        149.92466735839844,
        4.76837158203125e-07
      ],
      "type": "VEC3"
    },
    {
      "bufferView": 5,
      "byteOffset": 6504,
      "componentType": 5126,
      "count": 96,
      "max": [
        10.666666984558105
      ],
      "min": [
        5.333333492279053
      ],
      "type": "SCALAR"
    },
    {
      "bufferView": 6,
      "byteOffset": 19512,
      "componentType": 5126,
      "count": 96,
      "max": [
        -67.12683868408203,
        159.9282684326172,
        -1.430511474609375e-06
      ],
      "min": [
        -170.16603088378906,
        149.92466735839844,
        -1.430511474609375e-06
      ],
      "type": "VEC3"
    },
    {
      "bufferView": 5,
      "byteOffset": 6888,
      "componentType": 5126,
      "count": 56,
      "max": [
        10.666666984558105
      ],
      "min": [
        5.333333492279053
      ],
      "type": "SCALAR"
    },
    {
      "bufferView": 6,
      "byteOffset": 20664,
      "componentType": 5126,
      "count": 56,
      "max": [
        4.440892098500626e-16,
        353.4171142578125,
        0.0
      ],
      "min": [
        4.440892098500626e-16,
        223.3345184326172,
        0.0
      ],
      "type": "VEC3"
    },
    {
      "bufferView": 5,
      "byteOffset": 7112,
      "componentType": 5126,
      "count": 39,
      "max": [
        10.666666984558105
      ],
      "min": [
        5.333333492279053
      ],
      "type": "SCALAR"
    },
    {
      "bufferView": 6,
      "byteOffset": 21336,
      "componentType": 5126,
      "count": 39,
      "max": [
        79.56791687011719,
        0.0005446519353426993,
        -7.105360441998169e-15
      ],
      "min": [
        70.03592681884766,
        -3.0347795486450195,
        -7.477080850900718e-15
      ],
      "type": "VEC3"
    },
    {
      "bufferView": 5,
      "byteOffset": 7268,
      "componentType": 5126,
      "count": 56,
      "max": [
        10.666666984558105
      ],
      "min": [
        5.333333492279053
      ],
      "type": "SCALAR"
    },
    {
      "bufferView": 6,
      "byteOffset": 21804,
      "componentType": 5126,
      "count": 56,
      "max": [
        194.51719665527344,
        80.89769744873047,
        0.0
      ],
      "min": [
        91.45175170898438,
        80.89769744873047,
        0.0
      ],
      "type": "VEC3"
    },
    {
      "bufferView": 5,
      "byteOffset": 7492,
      "componentType": 5126,
      "count": 39,
      "max": [
        10.666666984558105
      ],
      "min": [
        5.333333492279053
      ],
      "type": "SCALAR"
    },
    {
      "bufferView": 6,
      "byteOffset": 22476,
      "componentType": 5126,
      "count": 39,
      "max": [
        79.56807708740234,
        0.0005445472779683769,
        7.105427357601002e-15
      ],
      "min": [
        70.03607940673828,
        -3.0347678661346436,
        7.105427357601002e-15
      ],
      "type": "VEC3"
    },
    {
      "bufferView": 5,
      "byteOffset": 7648,
      "componentType": 5126,
      "count": 39,
      "max": [
        10.666666984558105
      ],
      "min": [
        5.333333492279053
      ],
      "type": "SCALAR"
    },
    {
      "bufferView": 6,
      "byteOffset": 22944,
      "componentType": 5126,
      "count": 39,
      "max": [
        53.81596755981445,
        -58.30995559692383,
        1.4210854715202004e-14
      ],
      "min": [
        50.78065490722656,
        -67.84194946289063,
        1.4210854715202004e-14
      ],
      "type": "VEC3"
    },
    {
      "bufferView": 5,
      "byteOffset": 7804,
      "componentType": 5126,
      "count": 36,
      "max": [
        10.666666984558105
      ],
      "min": [
        5.333333492279053
      ],
      "type": "SCALAR"
    },
    {
      "bufferView": 6,
      "byteOffset": 23412,
      "componentType": 5126,
      "count": 36,
      "max": [
        -30.257837295532227,
        -84.63726806640625,
        0.0
      ],
      "min": [
        -33.2926025390625,
        -94.16754150390625,
        0.0
      ],
      "type": "VEC3"
    },
    {
      "bufferView": 5,
      "byteOffset": 7948,
      "componentType": 5126,
      "count": 59,
      "max": [
        10.666666984558105
      ],
      "min": [
        5.333333492279053
      ],
      "type": "SCALAR"
    },
    {
      "bufferView": 6,
      "byteOffset": 23844,
      "componentType": 5126,
      "count": 59,
      "max": [
        -91.4792709350586,
        80.89769744873047,
        0.0
      ],
      "min": [
        -194.51846313476563,
        80.89769744873047,
        0.0
      ],
      "type": "VEC3"
    },
    {
      "bufferView": 5,
      "byteOffset": 8184,
      "componentType": 5126,
      "count": 53,
      "max": [
        10.666666984558105
      ],
      "min": [
        5.333333492279053
      ],
      "type": "SCALAR"
    },
    {
      "bufferView": 6,
      "byteOffset": 24552,
      "componentType": 5126,
      "count": 53,
      "max": [
        4.440892098500626e-16,
        353.37823486328125,
        0.0
      ],
      "min": [
        4.440892098500626e-16,
        223.3782501220703,
        0.0
      ],
      "type": "VEC3"
    },
    {
      "bufferView": 5,
      "byteOffset": 8396,
      "componentType": 5126,
      "count": 35,
      "max": [
        10.666666984558105
      ],
      "min": [
        5.333333492279053
      ],
      "type": "SCALAR"
    },
    {
      "bufferView": 6,
      "byteOffset": 25188,
      "componentType": 5126,
      "count": 35,
      "max": [
        80.97077178955078,
        30.694129943847656,
        1.4210854715202004e-14
      ],
      "min": [
        70.97077178955078,
        30.694129943847656,
        1.4210854715202004e-14
      ],
      "type": "VEC3"
    },
    {
      "bufferView": 5,
      "byteOffset": 8536,
      "componentType": 5126,
      "count": 34,
      "max": [
        10.666666984558105
      ],
      "min": [
        5.333333492279053
      ],
      "type": "SCALAR"
    },
    {
      "bufferView": 6,
      "byteOffset": 25608,
      "componentType": 5126,
      "count": 34,
      "max": [
        80.54722595214844,
        -57.40388870239258,
        0.0
      ],
      "min": [
        70.54722595214844,
        -57.40388870239258,
        0.0
      ],
      "type": "VEC3"
    },
    {
      "bufferView": 5,
      "byteOffset": 8672,
      "componentType": 5126,
      "count": 35,
      "max": [
        10.666666984558105
      ],
      "min": [
        5.333333492279053
      ],
      "type": "SCALAR"
    },
    {
      "bufferView": 6,
      "byteOffset": 26016,
      "componentType": 5126,
      "count": 35,
      "max": [
        24.142196655273438,
        75.81529998779297,
        7.105427357601002e-15
      ],
      "min": [
        24.142196655273438,
        65.81529998779297,
        7.105427357601002e-15
      ],
      "type": "VEC3"
    },
    {
      "bufferView": 5,
      "byteOffset": 8812,
      "componentType": 5126,
      "count": 55,
      "max": [
        10.666666984558105
      ],
      "min": [
        5.333333492279053
      ],
      "type": "SCALAR"
    },
    {
      "bufferView": 6,
      "byteOffset": 26436,
      "componentType": 5126,
      "count": 55,
      "max": [
        -91.48639678955078,
        80.89769744873047,
        0.0
      ],
      "min": [
        -194.48638916015625,
        80.89769744873047,
        0.0
      ],
      "type": "VEC3"
    },
    {
      "bufferView": 5,
      "byteOffset": 9032,
      "componentType": 5126,
      "count": 35,
      "max": [
        10.666666984558105
      ],
      "min": [
        5.333333492279053
      ],
      "type": "SCALAR"
    },
    {
      "bufferView": 6,
      "byteOffset": 27096,
      "componentType": 5126,
      "count": 35,
      "max": [
        -24.142242431640625,
        75.81511688232422,
        1.4210854715202004e-14
      ],
      "min": [
        -24.142242431640625,
        65.81511688232422,
        1.4210854715202004e-14
      ],
      "type": "VEC3"
    },
    {
      "bufferView": 5,
      "byteOffset": 9172,
      "componentType": 5126,
      "count": 53,
      "max": [
        10.666666984558105
      ],
      "min": [
        5.333333492279053
      ],
      "type": "SCALAR"
    },
    {
      "bufferView": 6,
      "byteOffset": 27516,
      "componentType": 5126,
      "count": 53,
      "max": [
        194.48638916015625,
        80.89769744873047,
        -7.105427357601002e-15
      ],
      "min": [
        91.48639678955078,
        80.89769744873047,
        -7.105427357601002e-15
      ],
      "type": "VEC3"
    },
    {
      "bufferView": 5,
      "byteOffset": 9384,
      "componentType": 5126,
      "count": 55,
      "max": [
        16.0
      ],
      "min": [
        10.666666984558105
      ],
      "type": "SCALAR"
    },
    {
      "bufferView": 6,
      "byteOffset": 28152,
      "componentType": 5126,
      "count": 55,
      "max": [
        0.0,
        66.58956146240234,
        0.0
      ],
      "min": [
        0.0,
        -4.262324810028076,
        0.0
      ],
      "type": "VEC3"
    },
    {
      "bufferView": 5,
      "byteOffset": 9604,
      "componentType": 5126,
      "count": 113,
      "max": [
        16.0
      ],
      "min": [
        10.666666984558105
      ],
      "type": "SCALAR"
    },
    {
      "bufferView": 6,
      "byteOffset": 28812,
      "componentType": 5126,
      "count": 113,
      "max": [
        57.6863899230957,
        0.0,
        0.0
      ],
      "min": [
        -7.279035344254225e-05,
        0.0,
        0.0
      ],
      "type": "VEC3"
    },
    {
      "bufferView": 5,
      "byteOffset": 10056,
      "componentType": 5126,
      "count": 29,
      "max": [
        16.0
      ],
      "min": [
        10.666666984558105
      ],
      "type": "SCALAR"
    },
    {
      "bufferView": 6,
      "byteOffset": 30168,
      "componentType": 5126,
      "count": 29,
      "max": [
        0.14699654281139374,
        0.0,
        0.0
      ],
      "min": [
        -87.755859375,
        0.0,
        0.0
      ],
      "type": "VEC3"
    },
    {
      "bufferView": 5,
      "byteOffset": 10172,
      "componentType": 5126,
      "count": 56,
      "max": [
        16.0
      ],
      "min": [
        10.666666984558105
      ],
      "type": "SCALAR"
    },
    {
      "bufferView": 6,
      "byteOffset": 30516,
      "componentType": 5126,
      "count": 56,
      "max": [
        -9.315929412841797,
        112.31549072265625,
        9.5367431640625e-07
      ],
      "min": [
        -101.25895690917969,
        112.31549072265625,
        9.5367431640625e-07
      ],
      "type": "VEC3"
    },
    {
      "bufferView": 5,
      "byteOffset": 10396,
      "componentType": 5126,
      "count": 51,
      "max": [
        16.0
      ],
      "min": [
        10.666666984558105
      ],
      "type": "SCALAR"
    },
    {
      "bufferView": 6,
      "byteOffset": 31188,
      "componentType": 5126,
      "count": 51,
      "max": [
        3.552713678800501e-15,
        1.0231810719323574e-15,
        0.0
      ],
      "min": [
        -97.755859375,
        -1.534772539634778e-14,
        0.0
      ],
      "type": "VEC3"
    },
    {
      "bufferView": 5,
      "byteOffset": 10600,
      "componentType": 5126,
      "count": 113,
      "max": [
        16.0
      ],
      "min": [
        10.666666984558105
      ],
      "type": "SCALAR"
    },
    {
      "bufferView": 6,
      "byteOffset": 31800,
      "componentType": 5126,
      "count": 113,
      "max": [
        124.82038116455078,
        159.9498748779297,
        4.76837158203125e-07
      ],
      "min": [
        67.1339111328125,
        141.45440673828125,
        4.76837158203125e-07
      ],
      "type": "VEC3"
    },
    {
      "bufferView": 5,
      "byteOffset": 11052,
      "componentType": 5126,
      "count": 46,
      "max": [
        16.0
      ],
      "min": [
        10.666666984558105
      ],
      "type": "SCALAR"
    },
    {
      "bufferView": 6,
      "byteOffset": 33156,
      "componentType": 5126,
      "count": 46,
      "max": [
        -66.98696899414063,
        159.9385223388672,
        -1.430511474609375e-06
      ],
      "min": [
        -154.8898162841797,
        149.7019805908203,
        -1.430511474609375e-06
      ],
      "type": "VEC3"
    },
    {
      "bufferView": 5,
      "byteOffset": 11236,
      "componentType": 5126,
      "count": 55,
      "max": [
        16.0
      ],
      "min": [
        10.666666984558105
      ],
      "type": "SCALAR"
    },
    {
      "bufferView": 6,
      "byteOffset": 33708,
      "componentType": 5126,
      "count": 55,
      "max": [
        4.440892098500626e-16,
        289.9678039550781,
        0.0
      ],
      "min": [
        4.440892098500626e-16,
        219.11593627929688,
        0.0
      ],
      "type": "VEC3"
    },
    {
      "bufferView": 5,
      "byteOffset": 11456,
      "componentType": 5126,
      "count": 27,
      "max": [
        16.0
      ],
      "min": [
        10.666666984558105
      ],
      "type": "SCALAR"
    },
    {
      "bufferView": 6,
      "byteOffset": 34368,
      "componentType": 5126,
      "count": 27,
      "max": [
        79.58851623535156,
        0.007104459684342146,
        -7.104557454764172e-15
      ],
      "min": [
        61.96498489379883,
        -5.604856014251709,
        -7.791823894540313e-15
      ],
      "type": "VEC3"
    },
    {
      "bufferView": 5,
      "byteOffset": 11564,
      "componentType": 5126,
      "count": 113,
      "max": [
        16.0
      ],
      "min": [
        10.666666984558105
      ],
      "type": "SCALAR"
    },
    {
      "bufferView": 6,
      "byteOffset": 34692,
      "componentType": 5126,
      "count": 113,
      "max": [
        149.17279052734375,
        80.89769744873047,
        0.0
      ],
      "min": [
        91.48632049560547,
        80.89769744873047,
        0.0
      ],
      "type": "VEC3"
    },
    {
      "bufferView": 5,
      "byteOffset": 12016,
      "componentType": 5126,
      "count": 19,
      "max": [
        16.0
      ],
      "min": [
        10.666666984558105
      ],
      "type": "SCALAR"
    },
    {
      "bufferView": 6,
      "byteOffset": 36048,
      "componentType": 5126,
      "count": 19,
      "max": [
        79.57784271240234,
        0.003656694432720542,
        7.105427357601002e-15
      ],
      "min": [
        69.82389831542969,
        -3.102335214614868,
        7.105427357601002e-15
      ],
      "type": "VEC3"
    },
    {
      "bufferView": 5,
      "byteOffset": 12092,
      "componentType": 5126,
      "count": 29,
      "max": [
        16.0
      ],
      "min": [
        10.666666984558105
      ],
      "type": "SCALAR"
    },
    {
      "bufferView": 6,
      "byteOffset": 36276,
      "componentType": 5126,
      "count": 29,
      "max": [
        53.81861877441406,
        -63.84998321533203,
        1.4210854715202004e-14
      ],
      "min": [
        52.54479217529297,
        -67.85026550292969,
        1.4210854715202004e-14
      ],
      "type": "VEC3"
    },
    {
      "bufferView": 5,
      "byteOffset": 12208,
      "componentType": 5126,
      "count": 24,
      "max": [
        16.0
      ],
      "min": [
        10.666666984558105
      ],
      "type": "SCALAR"
    },
    {
      "bufferView": 6,
      "byteOffset": 36624,
      "componentType": 5126,
      "count": 24,
      "max": [
        -30.257837295532227,
        -84.61978149414063,
        0.0
      ],
      "min": [
        -33.29817581176758,
        -94.16754150390625,
        0.0
      ],
      "type": "VEC3"
    },
    {
      "bufferView": 5,
      "byteOffset": 12304,
      "componentType": 5126,
      "count": 29,
      "max": [
        16.0
      ],
      "min": [
        10.666666984558105
      ],
      "type": "SCALAR"
    },
    {
      "bufferView": 6,
      "byteOffset": 36912,
      "componentType": 5126,
      "count": 29,
      "max": [
        -91.33940124511719,
        80.89769744873047,
        0.0
      ],
      "min": [
        -179.24224853515625,
        80.89769744873047,
        0.0
      ],
      "type": "VEC3"
    },
    {
      "bufferView": 5,
      "byteOffset": 12420,
      "componentType": 5126,
      "count": 49,
      "max": [
        16.0
      ],
      "min": [
        10.666666984558105
      ],
      "type": "SCALAR"
    },
    {
      "bufferView": 6,
      "byteOffset": 37260,
      "componentType": 5126,
      "count": 49,
      "max": [
        4.440892098500626e-16,
        289.9678039550781,
        0.0
      ],
      "min": [
        4.440892098500626e-16,
        219.24928283691406,
        0.0
      ],
      "type": "VEC3"
    },
    {
      "bufferView": 5,
      "byteOffset": 12616,
      "componentType": 5126,
      "count": 25,
      "max": [
        16.0
      ],
      "min": [
        10.666666984558105
      ],
      "type": "SCALAR"
    },
    {
      "bufferView": 6,
      "byteOffset": 37848,
      "componentType": 5126,
      "count": 25,
      "max": [
        80.97077178955078,
        30.694129943847656,
        1.4210854715202004e-14
      ],
      "min": [
        76.79413604736328,
        30.694129943847656,
        1.4210854715202004e-14
      ],
      "type": "VEC3"
    },
    {
      "bufferView": 5,
      "byteOffset": 12716,
      "componentType": 5126,
      "count": 22,
      "max": [
        16.0
      ],
      "min": [
        10.666666984558105
      ],
      "type": "SCALAR"
    },
    {
      "bufferView": 6,
      "byteOffset": 38148,
      "componentType": 5126,
      "count": 22,
      "max": [
        80.54722595214844,
        -57.40388870239258,
        0.0
      ],
      "min": [
        70.54722595214844,
        -57.40388870239258,
        0.0
      ],
      "type": "VEC3"
    },
    {
      "bufferView": 5,
      "byteOffset": 12804,
      "componentType": 5126,
      "count": 15,
      "max": [
        16.0
      ],
      "min": [
        10.666666984558105
      ],
      "type": "SCALAR"
    },
    {
      "bufferView": 6,
      "byteOffset": 38412,
      "componentType": 5126,
      "count": 15,
      "max": [
        24.142196655273438,
        75.81529998779297,
        7.105427357601002e-15
      ],
      "min": [
        24.142196655273438,
        65.64505767822266,
        7.105427357601002e-15
      ],
      "type": "VEC3"
    },
    {
      "bufferView": 5,
      "byteOffset": 12864,
      "componentType": 5126,
      "count": 25,
      "max": [
        16.0
      ],
      "min": [
        10.666666984558105
      ],
      "type": "SCALAR"
    },
    {
      "bufferView": 6,
      "byteOffset": 38592,
      "componentType": 5126,
      "count": 25,
      "max": [
        -91.48639678955078,
        80.89769744873047,
        0.0
      ],
      "min": [
        -179.14425659179688,
        80.89769744873047,
        0.0
      ],
      "type": "VEC3"
    },
    {
      "bufferView": 5,
      "byteOffset": 12964,
      "componentType": 5126,
      "count": 19,
      "max": [
        16.0
      ],
      "min": [
        10.666666984558105
      ],
      "type": "SCALAR"
    },
    {
      "bufferView": 6,
      "byteOffset": 38892,
      "componentType": 5126,
      "count": 19,
      "max": [
        -24.142242431640625,
        75.81511688232422,
        1.4210854715202004e-14
      ],
      "min": [
        -24.142242431640625,
        57.449623107910156,
        1.4210854715202004e-14
      ],
      "type": "VEC3"
    },
    {
      "bufferView": 5,
      "byteOffset": 13040,
      "componentType": 5126,
      "count": 109,
      "max": [
        16.0
      ],
      "min": [
        10.666666984558105
      ],
      "type": "SCALAR"
    },
    {
      "bufferView": 6,
      "byteOffset": 39120,
      "componentType": 5126,
      "count": 109,
      "max": [
        149.1224822998047,
        80.89769744873047,
        -7.105427357601002e-15
      ],
      "min": [
        91.48639678955078,
        80.89769744873047,
        -7.105427357601002e-15
      ],
      "type": "VEC3"
    },
    {
      "bufferView": 5,
      "byteOffset": 13476,
      "componentType": 5126,
      "count": 209,
      "max": [
        21.33333396911621
      ],
      "min": [
        16.0
      ],
      "type": "SCALAR"
    },
    {
      "bufferView": 6,
      "byteOffset": 40428,
      "componentType": 5126,
      "count": 209,
      "max": [
        0.0,
        66.58956146240234,
        0.0
      ],
      "min": [
        0.0,
        -0.01761363446712494,
        0.0
      ],
      "type": "VEC3"
    },
    {
      "bufferView": 5,
      "byteOffset": 14312,
      "componentType": 5126,
      "count": 90,
      "max": [
        21.33333396911621
      ],
      "min": [
        16.0
      ],
      "type": "SCALAR"
    },
    {
      "bufferView": 6,
      "byteOffset": 42936,
      "componentType": 5126,
      "count": 90,
      "max": [
        57.63608932495117,
        0.0,
        0.0
      ],
      "min": [
        -0.474698930978775,
        0.0,
        0.0
      ],
      "type": "VEC3"
    },
    {
      "bufferView": 5,
      "byteOffset": 14672,
      "componentType": 5126,
      "count": 256,
      "max": [
        21.33333396911621
      ],
      "min": [
        16.0
      ],
      "type": "SCALAR"
    },
    {
      "bufferView": 6,
      "byteOffset": 44016,
      "componentType": 5126,
      "count": 256,
      "max": [
        0.0,
        0.0,
        0.0
      ],
      "min": [
        -87.6578598022461,
        0.0,
        0.0
      ],
      "type": "VEC3"
    },
    {
      "bufferView": 5,
      "byteOffset": 15696,
      "componentType": 5126,
      "count": 256,
      "max": [
        21.33333396911621
      ],
      "min": [
        16.0
      ],
      "type": "SCALAR"
    },
    {
      "bufferView": 6,
      "byteOffset": 47088,
      "componentType": 5126,
      "count": 256,
      "max": [
        -9.326458930969238,
        112.31549072265625,
        9.5367431640625e-07
      ],
      "min": [
        -101.16095733642578,
        112.31549072265625,
        9.5367431640625e-07
      ],
      "type": "VEC3"
    },
    {
      "bufferView": 5,
      "byteOffset": 16720,
      "componentType": 5126,
      "count": 256,
      "max": [
        21.33333396911621
      ],
      "min": [
        16.0
      ],
      "type": "SCALAR"
    },
    {
      "bufferView": 6,
      "byteOffset": 50160,
      "componentType": 5126,
      "count": 256,
      "max": [
        3.552713678800501e-15,
        7.105427357601002e-15,
        0.0
      ],
      "min": [
        -97.6578598022461,
        -2.842170943040401e-14,
        0.0
      ],
      "type": "VEC3"
    },
    {
      "bufferView": 5,
      "byteOffset": 17744,
      "componentType": 5126,
      "count": 103,
      "max": [
        21.33333396911621
      ],
      "min": [
        16.0
      ],
      "type": "SCALAR"
    },
    {
      "bufferView": 6,
      "byteOffset": 53232,
      "componentType": 5126,
      "count": 103,
      "max": [
        124.77008056640625,
        159.9264678955078,
        4.76837158203125e-07
      ],
      "min": [
        66.65928649902344,
        141.46302795410156,
        4.76837158203125e-07
      ],
      "type": "VEC3"
    },
    {
      "bufferView": 5,
      "byteOffset": 18156,
      "componentType": 5126,
      "count": 256,
      "max": [
        21.33333396911621
      ],
      "min": [
        16.0
      ],
      "type": "SCALAR"
    },
    {
      "bufferView": 6,
      "byteOffset": 54468,
      "componentType": 5126,
      "count": 256,
      "max": [
        -67.13396453857422,
        159.9264678955078,
        -1.430511474609375e-06
      ],
      "min": [
        -154.7918243408203,
        149.7019805908203,
        -1.430511474609375e-06
      ],
      "type": "VEC3"
    },
    {
      "bufferView": 5,
      "byteOffset": 19180,
      "componentType": 5126,
      "count": 209,
      "max": [
        21.33333396911621
      ],
      "min": [
        16.0
      ],
      "type": "SCALAR"
    },
    {
      "bufferView": 6,
      "byteOffset": 57540,
      "componentType": 5126,
      "count": 209,
      "max": [
        4.440892098500626e-16,
        289.9678039550781,
        0.0
      ],
      "min": [
        4.440892098500626e-16,
        223.3606414794922,
        0.0
      ],
      "type": "VEC3"
    },
    {
      "bufferView": 5,
      "byteOffset": 20016,
      "componentType": 5126,
      "count": 15,
      "max": [
        21.33333396911621
      ],
      "min": [
        16.0
      ],
      "type": "SCALAR"
    },
    {
      "bufferView": 6,
      "byteOffset": 60048,
      "componentType": 5126,
      "count": 15,
      "max": [
        79.56620025634766,
        -5.747696718572115e-07,
        -7.105427357601002e-15
      ],
      "min": [
        61.97319793701172,
        -5.602240085601807,
        -7.791503716086251e-15
      ],
      "type": "VEC3"
    },
    {
      "bufferView": 5,
      "byteOffset": 20076,
      "componentType": 5126,
      "count": 90,
      "max": [
        21.33333396911621
      ],
      "min": [
        16.0
      ],
      "type": "SCALAR"
    },
    {
      "bufferView": 6,
      "byteOffset": 60228,
      "componentType": 5126,
      "count": 90,
      "max": [
        149.1224822998047,
        80.89769744873047,
        0.0
      ],
      "min": [
        91.0116958618164,
        80.89769744873047,
        0.0
      ],
      "type": "VEC3"
    },
    {
      "bufferView": 5,
      "byteOffset": 20436,
      "componentType": 5126,
      "count": 15,
      "max": [
        21.33333396911621
      ],
      "min": [
        16.0
      ],
      "type": "SCALAR"
    },
    {
      "bufferView": 6,
      "byteOffset": 61308,
      "componentType": 5126,
      "count": 15,
      "max": [
        79.56636047363281,
        -6.498686957456812e-07,
        7.105427357601002e-15
      ],
      "min": [
        69.82389831542969,
        -3.102334976196289,
        7.105427357601002e-15
      ],
      "type": "VEC3"
    },
    {
      "bufferView": 5,
      "byteOffset": 20496,
      "componentType": 5126,
      "count": 15,
      "max": [
        21.33333396911621
      ],
      "min": [
        16.0
      ],
      "type": "SCALAR"
    },
    {
      "bufferView": 6,
      "byteOffset": 61488,
      "componentType": 5126,
      "count": 15,
      "max": [
        53.81542205810547,
        -63.83926773071289,
        1.4210854715202004e-14
      ],
      "min": [
        52.541378021240234,
        -67.8402328491211,
        1.4210854715202004e-14
      ],
      "type": "VEC3"
    },
    {
      "bufferView": 5,
      "byteOffset": 20556,
      "componentType": 5126,
      "count": 15,
      "max": [
        21.33333396911621
      ],
      "min": [
        16.0
      ],
      "type": "SCALAR"
    },
    {
      "bufferView": 6,
      "byteOffset": 61668,
      "componentType": 5126,
      "count": 15,
      "max": [
        -30.257837295532227,
        -84.58816528320313,
        0.0
      ],
      "min": [
        -33.3082389831543,
        -94.16754150390625,
        0.0
      ],
      "type": "VEC3"
    },
    {
      "bufferView": 5,
      "byteOffset": 20616,
      "componentType": 5126,
      "count": 256,
      "max": [
        21.33333396911621
      ],
      "min": [
        16.0
      ],
      "type": "SCALAR"
    },
    {
      "bufferView": 6,
      "byteOffset": 61848,
      "componentType": 5126,
      "count": 256,
      "max": [
        -91.48639678955078,
        80.89769744873047,
        0.0
      ],
      "min": [
        -179.14425659179688,
        80.89769744873047,
        0.0
      ],
      "type": "VEC3"
    },
    {
      "bufferView": 5,
      "byteOffset": 21640,
      "componentType": 5126,
      "count": 203,
      "max": [
        21.33333396911621
      ],
      "min": [
        16.0
      ],
      "type": "SCALAR"
    },
    {
      "bufferView": 6,
      "byteOffset": 64920,
      "componentType": 5126,
      "count": 203,
      "max": [
        4.440892098500626e-16,
        289.9678039550781,
        0.0
      ],
      "min": [
        4.440892098500626e-16,
        223.3782501220703,
        0.0
      ],
      "type": "VEC3"
    },
    {
      "bufferView": 5,
      "byteOffset": 22452,
      "componentType": 5126,
      "count": 13,
      "max": [
        21.33333396911621
      ],
      "min": [
        16.0
      ],
      "type": "SCALAR"
    },
    {
      "bufferView": 6,
      "byteOffset": 67356,
      "componentType": 5126,
      "count": 13,
      "max": [
        80.97077178955078,
        30.694129943847656,
        1.4210854715202004e-14
      ],
      "min": [
        76.79413604736328,
        30.694129943847656,
        1.4210854715202004e-14
      ],
      "type": "VEC3"
    },
    {
      "bufferView": 5,
      "byteOffset": 22504,
      "componentType": 5126,
      "count": 13,
      "max": [
        21.33333396911621
      ],
      "min": [
        16.0
      ],
      "type": "SCALAR"
    },
    {
      "bufferView": 6,
      "byteOffset": 67512,
      "componentType": 5126,
      "count": 13,
      "max": [
        80.54722595214844,
        -57.40388870239258,
        0.0
      ],
      "min": [
        70.54722595214844,
        -57.40388870239258,
        0.0
      ],
      "type": "VEC3"
    },
    {
      "bufferView": 5,
      "byteOffset": 22556,
      "componentType": 5126,
      "count": 13,
      "max": [
        21.33333396911621
      ],
      "min": [
        16.0
      ],
      "type": "SCALAR"
    },
    {
      "bufferView": 6,
      "byteOffset": 67668,
      "componentType": 5126,
      "count": 13,
      "max": [
        24.142196655273438,
        75.81529998779297,
        7.105427357601002e-15
      ],
      "min": [
        24.142196655273438,
        65.64505767822266,
        7.105427357601002e-15
      ],
      "type": "VEC3"
    },
    {
      "bufferView": 5,
      "byteOffset": 22608,
      "componentType": 5126,
      "count": 256,
      "max": [
        21.33333396911621
      ],
      "min": [
        16.0
      ],
      "type": "SCALAR"
    },
    {
      "bufferView": 6,
      "byteOffset": 67824,
      "componentType": 5126,
      "count": 256,
      "max": [
        -91.48639678955078,
        80.89769744873047,
        0.0
      ],
      "min": [
        -179.14425659179688,
        80.89769744873047,
        0.0
      ],
      "type": "VEC3"
    },
    {
      "bufferView": 5,
      "byteOffset": 23632,
      "componentType": 5126,
      "count": 13,
      "max": [
        21.33333396911621
      ],
      "min": [
        16.0
      ],
      "type": "SCALAR"
    },
    {
      "bufferView": 6,
      "byteOffset": 70896,
      "componentType": 5126,
      "count": 13,
      "max": [
        -24.142242431640625,
        75.81511688232422,
        1.4210854715202004e-14
      ],
      "min": [
        -24.142242431640625,
        57.449623107910156,
        1.4210854715202004e-14
      ],
      "type": "VEC3"
    },
    {
      "bufferView": 5,
      "byteOffset": 23684,
      "componentType": 5126,
      "count": 80,
      "max": [
        21.33333396911621
      ],
      "min": [
        16.0
      ],
      "type": "SCALAR"
    },
    {
      "bufferView": 6,
      "byteOffset": 71052,
      "componentType": 5126,
      "count": 80,
      "max": [
        149.1224822998047,
        80.89769744873047,
        -7.105427357601002e-15
      ],
      "min": [
        91.48639678955078,
        80.89769744873047,
        -7.105427357601002e-15
      ],
      "type": "VEC3"
    }
  ],
  "animations": [
    {
      "channels": [
        {
          "sampler": 0,
          "target": {
            "node": 20,
            "path": "translation"
          }
        },
        {
          "sampler": 1,
          "target": {
            "node": 24,
            "path": "translation"
          }
        },
        {
          "sampler": 2,
          "target": {
            "node": 26,
            "path": "translation"
          }
        },
        {
          "sampler": 3,
          "target": {
            "node": 28,
            "path": "translation"
          }
        },
        {
          "sampler": 4,
          "target": {
            "node": 30,
            "path": "translation"
          }
        },
        {
          "sampler": 5,
          "target": {
            "node": 32,
            "path": "translation"
          }
        },
        {
          "sampler": 6,
          "target": {
            "node": 34,
            "path": "translation"
          }
        },
        {
          "sampler": 7,
          "target": {
            "node": 7,
            "path": "translation"
          }
        },
        {
          "sampler": 8,
          "target": {
            "node": 9,
            "path": "translation"
          }
        },
        {
          "sampler": 9,
          "target": {
            "node": 8,
            "path": "translation"
          }
        },
        {
          "sampler": 10,
          "target": {
            "node": 11,
            "path": "translation"
          }
        },
        {
          "sampler": 11,
          "target": {
            "node": 12,
            "path": "translation"
          }
        },
        {
          "sampler": 12,
          "target": {
            "node": 13,
            "path": "translation"
          }
        },
        {
          "sampler": 13,
          "target": {
            "node": 10,
            "path": "translation"
          }
        },
        {
          "sampler": 14,
          "target": {
            "node": 37,
            "path": "translation"
          }
        },
        {
          "sampler": 15,
          "target": {
            "node": 39,
            "path": "translation"
          }
        },
        {
          "sampler": 16,
          "target": {
            "node": 40,
            "path": "translation"
          }
        },
        {
          "sampler": 17,
          "target": {
            "node": 41,
            "path": "translation"
          }
        },
        {
          "sampler": 18,
          "target": {
            "node": 38,
            "path": "translation"
          }
        },
        {
          "sampler": 19,
          "target": {
            "node": 43,
            "path": "translation"
          }
        },
        {
          "sampler": 20,
          "target": {
            "node": 42,
            "path": "translation"
          }
        }
      ],
      "name": "Default_Open",
      "samplers": [
        {
          "input": 46,
          "interpolation": "LINEAR",
          "output": 47
        },
        {
          "input": 48,
          "interpolation": "LINEAR",
          "output": 49
        },
        {
          "input": 50,
          "interpolation": "LINEAR",
          "output": 51
        },
        {
          "input": 52,
          "interpolation": "LINEAR",
          "output": 53
        },
        {
          "input": 54,
          "interpolation": "LINEAR",
          "output": 55
        },
        {
          "input": 56,
          "interpolation": "LINEAR",
          "output": 57
        },
        {
          "input": 58,
          "interpolation": "LINEAR",
          "output": 59
        },
        {
          "input": 60,
          "interpolation": "LINEAR",
          "output": 61
        },
        {
          "input": 62,
          "interpolation": "LINEAR",
          "output": 63
        },
        {
          "input": 64,
          "interpolation": "LINEAR",
          "output": 65
        },
        {
          "input": 66,
          "interpolation": "LINEAR",
          "output": 67
        },
        {
          "input": 68,
          "interpolation": "LINEAR",
          "output": 69
        },
        {
          "input": 70,
          "interpolation": "LINEAR",
          "output": 71
        },
        {
          "input": 72,
          "interpolation": "LINEAR",
          "output": 73
        },
        {
          "input": 74,
          "interpolation": "LINEAR",
          "output": 75
        },
        {
          "input": 76,
          "interpolation": "LINEAR",
          "output": 77
        },
        {
          "input": 78,
          "interpolation": "LINEAR",
          "output": 79
        },
        {
          "input": 80,
          "interpolation": "LINEAR",
          "output": 81
        },
        {
          "input": 82,
          "interpolation": "LINEAR",
          "output": 83
        },
        {
          "input": 84,
          "interpolation": "LINEAR",
          "output": 85
        },
        {
          "input": 86,
          "interpolation": "LINEAR",
          "output": 87
        }
      ]
    },
    {
      "channels": [
        {
          "sampler": 0,
          "target": {
            "node": 20,
            "path": "translation"
          }
        },
        {
          "sampler": 1,
          "target": {
            "node": 24,
            "path": "translation"
          }
        },
        {
          "sampler": 2,
          "target": {
            "node": 26,
            "path": "translation"
          }
        },
        {
          "sampler": 3,
          "target": {
            "node": 28,
            "path": "translation"
          }
        },
        {
          "sampler": 4,
          "target": {
            "node": 30,
            "path": "translation"
          }
        },
        {
          "sampler": 5,
          "target": {
            "node": 32,
            "path": "translation"
          }
        },
        {
          "sampler": 6,
          "target": {
            "node": 34,
            "path": "translation"
          }
        },
        {
          "sampler": 7,
          "target": {
            "node": 7,
            "path": "translation"
          }
        },
        {
          "sampler": 8,
          "target": {
            "node": 9,
            "path": "translation"
          }
        },
        {
          "sampler": 9,
          "target": {
            "node": 8,
            "path": "translation"
          }
        },
        {
          "sampler": 10,
          "target": {
            "node": 11,
            "path": "translation"
          }
        },
        {
          "sampler": 11,
          "target": {
            "node": 12,
            "path": "translation"
          }
        },
        {
          "sampler": 12,
          "target": {
            "node": 13,
            "path": "translation"
          }
        },
        {
          "sampler": 13,
          "target": {
            "node": 10,
            "path": "translation"
          }
        },
        {
          "sampler": 14,
          "target": {
            "node": 37,
            "path": "translation"
          }
        },
        {
          "sampler": 15,
          "target": {
            "node": 39,
            "path": "translation"
          }
        },
        {
          "sampler": 16,
          "target": {
            "node": 40,
            "path": "translation"
          }
        },
        {
          "sampler": 17,
          "target": {
            "node": 41,
            "path": "translation"
          }
        },
        {
          "sampler": 18,
          "target": {
            "node": 38,
            "path": "translation"
          }
        },
        {
          "sampler": 19,
          "target": {
            "node": 43,
            "path": "translation"
          }
        },
        {
          "sampler": 20,
          "target": {
            "node": 42,
            "path": "translation"
          }
        }
      ],
      "name": "Default_Close",
      "samplers": [
        {
          "input": 88,
          "interpolation": "LINEAR",
          "output": 89
        },
        {
          "input": 90,
          "interpolation": "LINEAR",
          "output": 91
        },
        {
          "input": 92,
          "interpolation": "LINEAR",
          "output": 93
        },
        {
          "input": 94,
          "interpolation": "LINEAR",
          "output": 95
        },
        {
          "input": 96,
          "interpolation": "LINEAR",
          "output": 97
        },
        {
          "input": 98,
          "interpolation": "LINEAR",
          "output": 99
        },
        {
          "input": 100,
          "interpolation": "LINEAR",
          "output": 101
        },
        {
          "input": 102,
          "interpolation": "LINEAR",
          "output": 103
        },
        {
          "input": 104,
          "interpolation": "LINEAR",
          "output": 105
        },
        {
          "input": 106,
          "interpolation": "LINEAR",
          "output": 107
        },
        {
          "input": 108,
          "interpolation": "LINEAR",
          "output": 109
        },
        {
          "input": 110,
          "interpolation": "LINEAR",
          "output": 111
        },
        {
          "input": 112,
          "interpolation": "LINEAR",
          "output": 113
        },
        {
          "input": 114,
          "interpolation": "LINEAR",
          "output": 115
        },
        {
          "input": 116,
          "interpolation": "LINEAR",
          "output": 117
        },
        {
          "input": 118,
          "interpolation": "LINEAR",
          "output": 119
        },
        {
          "input": 120,
          "interpolation": "LINEAR",
          "output": 121
        },
        {
          "input": 122,
          "interpolation": "LINEAR",
          "output": 123
        },
        {
          "input": 124,
          "interpolation": "LINEAR",
          "output": 125
        },
        {
          "input": 126,
          "interpolation": "LINEAR",
          "output": 127
        },
        {
          "input": 128,
          "interpolation": "LINEAR",
          "output": 129
        }
      ]
    },
    {
      "channels": [
        {
          "sampler": 0,
          "target": {
            "node": 20,
            "path": "translation"
          }
        },
        {
          "sampler": 1,
          "target": {
            "node": 24,
            "path": "translation"
          }
        },
        {
          "sampler": 2,
          "target": {
            "node": 26,
            "path": "translation"
          }
        },
        {
          "sampler": 3,
          "target": {
            "node": 28,
            "path": "translation"
          }
        },
        {
          "sampler": 4,
          "target": {
            "node": 30,
            "path": "translation"
          }
        },
        {
          "sampler": 5,
          "target": {
            "node": 32,
            "path": "translation"
          }
        },
        {
          "sampler": 6,
          "target": {
            "node": 34,
            "path": "translation"
          }
        },
        {
          "sampler": 7,
          "target": {
            "node": 7,
            "path": "translation"
          }
        },
        {
          "sampler": 8,
          "target": {
            "node": 9,
            "path": "translation"
          }
        },
        {
          "sampler": 9,
          "target": {
            "node": 8,
            "path": "translation"
          }
        },
        {
          "sampler": 10,
          "target": {
            "node": 11,
            "path": "translation"
          }
        },
        {
          "sampler": 11,
          "target": {
            "node": 12,
            "path": "translation"
          }
        },
        {
          "sampler": 12,
          "target": {
            "node": 13,
            "path": "translation"
          }
        },
        {
          "sampler": 13,
          "target": {
            "node": 10,
            "path": "translation"
          }
        },
        {
          "sampler": 14,
          "target": {
            "node": 37,
            "path": "translation"
          }
        },
        {
          "sampler": 15,
          "target": {
            "node": 39,
            "path": "translation"
          }
        },
        {
          "sampler": 16,
          "target": {
            "node": 40,
            "path": "translation"
          }
        },
        {
          "sampler": 17,
          "target": {
            "node": 41,
            "path": "translation"
          }
        },
        {
          "sampler": 18,
          "target": {
            "node": 38,
            "path": "translation"
          }
        },
        {
          "sampler": 19,
          "target": {
            "node": 43,
            "path": "translation"
          }
        },
        {
          "sampler": 20,
          "target": {
            "node": 42,
            "path": "translation"
          }
        }
      ],
      "name": "Broken_Open",
      "samplers": [
        {
          "input": 130,
          "interpolation": "LINEAR",
          "output": 131
        },
        {
          "input": 132,
          "interpolation": "LINEAR",
          "output": 133
        },
        {
          "input": 134,
          "interpolation": "LINEAR",
          "output": 135
        },
        {
          "input": 136,
          "interpolation": "LINEAR",
          "output": 137
        },
        {
          "input": 138,
          "interpolation": "LINEAR",
          "output": 139
        },
        {
          "input": 140,
          "interpolation": "LINEAR",
          "output": 141
        },
        {
          "input": 142,
          "interpolation": "LINEAR",
          "output": 143
        },
        {
          "input": 144,
          "interpolation": "LINEAR",
          "output": 145
        },
        {
          "input": 146,
          "interpolation": "LINEAR",
          "output": 147
        },
        {
          "input": 148,
          "interpolation": "LINEAR",
          "output": 149
        },
        {
          "input": 150,
          "interpolation": "LINEAR",
          "output": 151
        },
        {
          "input": 152,
          "interpolation": "LINEAR",
          "output": 153
        },
        {
          "input": 154,
          "interpolation": "LINEAR",
          "output": 155
        },
        {
          "input": 156,
          "interpolation": "LINEAR",
          "output": 157
        },
        {
          "input": 158,
          "interpolation": "LINEAR",
          "output": 159
        },
        {
          "input": 160,
          "interpolation": "LINEAR",
          "output": 161
        },
        {
          "input": 162,
          "interpolation": "LINEAR",
          "output": 163
        },
        {
          "input": 164,
          "interpolation": "LINEAR",
          "output": 165
        },
        {
          "input": 166,
          "interpolation": "LINEAR",
          "output": 167
        },
        {
          "input": 168,
          "interpolation": "LINEAR",
          "output": 169
        },
        {
          "input": 170,
          "interpolation": "LINEAR",
          "output": 171
        }
      ]
    },
    {
      "channels": [
        {
          "sampler": 0,
          "target": {
            "node": 20,
            "path": "translation"
          }
        },
        {
          "sampler": 1,
          "target": {
            "node": 24,
            "path": "translation"
          }
        },
        {
          "sampler": 2,
          "target": {
            "node": 26,
            "path": "translation"
          }
        },
        {
          "sampler": 3,
          "target": {
            "node": 28,
            "path": "translation"
          }
        },
        {
          "sampler": 4,
          "target": {
            "node": 30,
            "path": "translation"
          }
        },
        {
          "sampler": 5,
          "target": {
            "node": 32,
            "path": "translation"
          }
        },
        {
          "sampler": 6,
          "target": {
            "node": 34,
            "path": "translation"
          }
        },
        {
          "sampler": 7,
          "target": {
            "node": 7,
            "path": "translation"
          }
        },
        {
          "sampler": 8,
          "target": {
            "node": 9,
            "path": "translation"
          }
        },
        {
          "sampler": 9,
          "target": {
            "node": 8,
            "path": "translation"
          }
        },
        {
          "sampler": 10,
          "target": {
            "node": 11,
            "path": "translation"
          }
        },
        {
          "sampler": 11,
          "target": {
            "node": 12,
            "path": "translation"
          }
        },
        {
          "sampler": 12,
          "target": {
            "node": 13,
            "path": "translation"
          }
        },
        {
          "sampler": 13,
          "target": {
            "node": 10,
            "path": "translation"
          }
        },
        {
          "sampler": 14,
          "target": {
            "node": 37,
            "path": "translation"
          }
        },
        {
          "sampler": 15,
          "target": {
            "node": 39,
            "path": "translation"
          }
        },
        {
          "sampler": 16,
          "target": {
            "node": 40,
            "path": "translation"
          }
        },
        {
          "sampler": 17,
          "target": {
            "node": 41,
            "path": "translation"
          }
        },
        {
          "sampler": 18,
          "target": {
            "node": 38,
            "path": "translation"
          }
        },
        {
          "sampler": 19,
          "target": {
            "node": 43,
            "path": "translation"
          }
        },
        {
          "sampler": 20,
          "target": {
            "node": 42,
            "path": "translation"
          }
        }
      ],
      "name": "Broken_Close",
      "samplers": [
        {
          "input": 172,
          "interpolation": "LINEAR",
          "output": 173
        },
        {
          "input": 174,
          "interpolation": "LINEAR",
          "output": 175
        },
        {
          "input": 176,
          "interpolation": "LINEAR",
          "output": 177
        },
        {
          "input": 178,
          "interpolation": "LINEAR",
          "output": 179
        },
        {
          "input": 180,
          "interpolation": "LINEAR",
          "output": 181
        },
        {
          "input": 182,
          "interpolation": "LINEAR",
          "output": 183
        },
        {
          "input": 184,
          "interpolation": "LINEAR",
          "output": 185
        },
        {
          "input": 186,
          "interpolation": "LINEAR",
          "output": 187
        },
        {
          "input": 188,
          "interpolation": "LINEAR",
          "output": 189
        },
        {
          "input": 190,
          "interpolation": "LINEAR",
          "output": 191
        },
        {
          "input": 192,
          "interpolation": "LINEAR",
          "output": 193
        },
        {
          "input": 194,
          "interpolation": "LINEAR",
          "output": 195
        },
        {
          "input": 196,
          "interpolation": "LINEAR",
          "output": 197
        },
        {
          "input": 198,
          "interpolation": "LINEAR",
          "output": 199
        },
        {
          "input": 200,
          "interpolation": "LINEAR",
          "output": 201
        },
        {
          "input": 202,
          "interpolation": "LINEAR",
          "output": 203
        },
        {
          "input": 204,
          "interpolation": "LINEAR",
          "output": 205
        },
        {
          "input": 206,
          "interpolation": "LINEAR",
          "output": 207
        },
        {
          "input": 208,
          "interpolation": "LINEAR",
          "output": 209
        },
        {
          "input": 210,
          "interpolation": "LINEAR",
          "output": 211
        },
        {
          "input": 212,
          "interpolation": "LINEAR",
          "output": 213
        }
      ]
    }
  ],
  "asset": {
    "extras": {
      "author": "jamorris5 (https://sketchfab.com/jamorris5)",
      "license": "CC-BY-4.0 (http://creativecommons.org/licenses/by/4.0/)",
      "source": "https://sketchfab.com/3d-models/morris-door-loops-712b4b8907e24f04832b06b5657e8d02",
      "title": "Morris Door Loops"
    },
    "generator": "Sketchfab-16.33.0",
    "version": "2.0"
  },
  "bufferViews": [
    {
      "buffer": 0,
      "byteLength": 116136,
      "name": "floatBufferViews",
      "target": 34963
    },
    {
      "buffer": 0,
      "byteLength": 220104,
      "byteOffset": 116136,
      "byteStride": 8,
      "name": "floatBufferViews",
      "target": 34962
    },
    {
      "buffer": 0,
      "byteLength": 660312,
      "byteOffset": 336240,
      "byteStride": 12,
      "name": "floatBufferViews",
      "target": 34962
    },
    {
      "buffer": 0,
      "byteLength": 440208,
      "byteOffset": 996552,
      "byteStride": 16,
      "name": "floatBufferViews",
      "target": 34962
    },
    {
      "buffer": 0,
      "byteLength": 576,
      "byteOffset": 1436760,
      "name": "floatBufferViews"
    },
    {
      "buffer": 0,
      "byteLength": 24004,
      "byteOffset": 1437336,
      "name": "floatBufferViews"
    },
    {
      "buffer": 0,
      "byteLength": 72012,
      "byteOffset": 1461340,
      "byteStride": 12,
      "name": "floatBufferViews"
    }
  ],
  "buffers": [
    {
      "byteLength": 1533352,
      "uri": "scene.bin"
    }
  ],
  "images": [
    {
      "uri": "textures/MAT_Scifi_Door_5_baseColor.png"
    },
    {
      "uri": "textures/MAT_Scifi_Door_5_metallicRoughness.png"
    },
    {
      "uri": "textures/MAT_Scifi_Door_5_emissive.png"
    },
    {
      "uri": "textures/MAT_Scifi_Door_5_normal.png"
    }
  ],
  "materials": [
    {
      "doubleSided": true,
      "emissiveFactor": [
        1.0,
        1.0,
        1.0
      ],
      "emissiveTexture": {
        "index": 2
      },
      "name": "MAT_Scifi_Door_5",
      "normalTexture": {
        "index": 3
      },
      "occlusionTexture": {
        "index": 1
      },
      "pbrMetallicRoughness": {
        "baseColorTexture": {
          "index": 0
        },
        "metallicRoughnessTexture": {
          "index": 1
        }
      }
    }
  ],
  "meshes": [
    {
      "name": "Door_Frame_MAT_Scifi_Door_5_0",
      "primitives": [
        {
          "attributes": {
            "NORMAL": 1,
            "POSITION": 0,
            "TANGENT": 2,
            "TEXCOORD_0": 3
          },
          "indices": 4,
          "material": 0,
          "mode": 4
        }
      ]
    },
    {
      "name": "Door_Top_MAT_Scifi_Door_5_0",
      "primitives": [
        {
          "attributes": {
            "NORMAL": 6,
            "POSITION": 5,
            "TANGENT": 7,
            "TEXCOORD_0": 8
          },
          "indices": 9,
          "material": 0,
          "mode": 4
        }
      ]
    },
    {
      "name": "Door_info_decals_MAT_Scifi_Door_5_0",
      "primitives": [
        {
          "attributes": {
            "NORMAL": 11,
            "POSITION": 10,
            "TANGENT": 12,
            "TEXCOORD_0": 13
          },
          "indices": 14,
          "material": 0,
          "mode": 4
        }
      ]
    },
    {
      "name": "Door_Left_MAT_Scifi_Door_5_0",
      "primitives": [
        {
          "attributes": {
            "NORMAL": 16,
            "POSITION": 15,
            "TANGENT": 17,
            "TEXCOORD_0": 18
          },
          "indices": 19,
          "material": 0,
          "mode": 4
        }
      ]
    },
    {
      "name": "Door_Right_MAT_Scifi_Door_5_0",
      "primitives": [
        {
          "attributes": {
            "NORMAL": 21,
            "POSITION": 20,
            "TANGENT": 22,
            "TEXCOORD_0": 23
          },
          "indices": 24,
          "material": 0,
          "mode": 4
        }
      ]
    },
    {
      "name": "Latch_Mid_Top_MAT_Scifi_Door_5_0",
      "primitives": [
        {
          "attributes": {
            "NORMAL": 26,
            "POSITION": 25,
            "TANGENT": 27,
            "TEXCOORD_0": 28
          },
          "indices": 29,
          "material": 0,
          "mode": 4
        }
      ]
    },
    {
      "name": "Latch_Mid_Btm_MAT_Scifi_Door_5_0",
      "primitives": [
        {
          "attributes": {
            "NORMAL": 31,
            "POSITION": 30,
            "TANGENT": 32,
            "TEXCOORD_0": 33
          },
          "indices": 34,
          "material": 0,
          "mode": 4
        }
      ]
    },
    {
      "name": "Latch_Top_Left_MAT_Scifi_Door_5_0",
      "primitives": [
        {
          "attributes": {
            "NORMAL": 36,
            "POSITION": 35,
            "TANGENT": 37,
            "TEXCOORD_0": 38
          },
          "indices": 39,
          "material": 0,
          "mode": 4
        }
      ]
    },
    {
      "name": "Latch_Top_Right_MAT_Scifi_Door_5_0",
      "primitives": [
        {
          "attributes": {
            "NORMAL": 41,
            "POSITION": 40,
            "TANGENT": 42,
            "TEXCOORD_0": 43
          },
          "indices": 44,
          "material": 0,
          "mode": 4
        }
      ]
    }
  ],
  "nodes": [
    {
      "children": [
        1
      ],
      "matrix": [
        1.0,
        0.0,
        0.0,
        0.0,
        0.0,
        2.220446049250313e-16,
        -1.0,
        0.0,
        0.0,
        1.0,
        2.220446049250313e-16,
        0.0,
        0.0,
        0.0,
        0.0,
        1.0
      ],
      "name": "Sketchfab_model"
    },
    {
      "children": [
        2
      ],
      "matrix": [
        0.009999999776482582,
        0.0,
        0.0,
        0.0,
        0.0,
        0.0,
        0.009999999776482582,
        0.0,
        0.0,
        -0.009999999776482582,
        0.0,
        0.0,
        0.0,
        0.0,
        0.0,
        1.0
      ],
      "name": "8319725a5c524c46aac8d42e6546ba98.fbx"
    },
    {
      "children": [
        3
      ],
      "name": "Object_2"
    },
    {
      "children": [
        4
      ],
      "name": "RootNode"
    },
    {
      "children": [
        5,
        14,
        16,
        18,
        36
      ],
      "name": "Object_4"
    },
    {
      "children": [
        6
      ],
      "name": "_rootJoint"
    },
    {
      "children": [
        7,
        8,
        10
      ],
      "name": "J_Door_Root_00"
    },
    {
      "name": "J_Door_Upper_01",
      "translation": [
        4.440892098500626e-16,
        223.3782501220703,
        0.0
      ]
    },
    {
      "children": [
        9
      ],
      "name": "J_Door_Right_02",
      "rotation": [
        0.5901595950126648,
        0.8072866201400757,
        4.9432048708372917e-17,
        3.613685082342446e-17
      ],
      "translation": [
        91.48639678955078,
        80.89769744873047,
        0.0
      ]
    },
    {
      "name": "J_Latch_Up_03",
      "rotation": [
        1.232595164407831e-32,
        -3.0814879110195774e-33,
        -2.7755575615628914e-17,
        1.0
      ],
      "translation": [
        79.56620025634766,
        -5.747697287006304e-07,
        -7.105427357601002e-15
      ]
    },
    {
      "children": [
        11,
        12,
        13
      ],
      "name": "J_Door_Left_04",
      "rotation": [
        0.0,
        0.0,
        0.590160071849823,
        0.807286262512207
      ],
      "translation": [
        -91.48639678955078,
        80.89769744873047,
        0.0
      ]
    },
    {
      "name": "J_Latch_Up_05",
      "rotation": [
        0.0,
        0.0,
        2.7755575615628914e-17,
        1.0
      ],
      "translation": [
        79.56636047363281,
        -6.498686957456812e-07,
        7.105427357601002e-15
      ]
    },
    {
      "name": "J_Mid_Latch_Up_06",
      "rotation": [
        0.0,
        0.0,
        2.7755575615628914e-17,
        1.0
      ],
      "translation": [
        53.81542205810547,
        -67.8402328491211,
        1.4210854715202004e-14
      ]
    },
    {
      "name": "J_Mid_Latch_Down_07",
      "rotation": [
        0.0,
        0.0,
        2.7755575615628914e-17,
        1.0
      ],
      "translation": [
        -30.257837295532227,
        -94.16754150390625,
        0.0
      ]
    },
    {
      "children": [
        15
      ],
      "name": "camera1",
      "rotation": [
        -0.04361642152070999,
        0.69328773021698,
        -0.045166127383708954,
        0.7179204225540161
      ],
      "translation": [
        44.61134719848633,
        741.111328125,
        4833.01025390625
      ]
    },
    {
      "name": "Object_15"
    },
    {
      "children": [
        17
      ],
      "name": "back",
      "rotation": [
        -0.0,
        -0.7071068286895752,
        0.0,
        0.7071068286895752
      ],
      "translation": [
        0.0,
        0.0,
        -1000.0999755859375
      ]
    },
    {
      "name": "Object_17"
    },
    {
      "children": [
        19,
        20,
        24,
        26,
        28,
        30,
        32,
        34
      ],
      "name": "Door_Frame"
    },
    {
      "mesh": 0,
      "name": "Door_Frame_MAT_Scifi_Door_5_0"
    },
    {
      "children": [
        21,
        22
      ],
      "name": "Door_Top"
    },
    {
      "mesh": 1,
      "name": "Door_Top_MAT_Scifi_Door_5_0"
    },
    {
      "children": [
        23
      ],
      "name": "Door_info_decals"
    },
    {
      "mesh": 2,
      "name": "Door_info_decals_MAT_Scifi_Door_5_0"
    },
    {
      "children": [
        25
      ],
      "name": "Door_Left"
    },
    {
      "mesh": 3,
      "name": "Door_Left_MAT_Scifi_Door_5_0"
    },
    {
      "children": [
        27
      ],
      "name": "Door_Right"
    },
    {
      "mesh": 4,
      "name": "Door_Right_MAT_Scifi_Door_5_0"
    },
    {
      "children": [
        29
      ],
      "name": "Latch_Mid_Top",
      "translation": [
        -9.326458930969238,
        112.31549072265625,
        9.5367431640625e-07
      ]
    },
    {
      "mesh": 5,
      "name": "Latch_Mid_Top_MAT_Scifi_Door_5_0"
    },
    {
      "children": [
        31
      ],
      "name": "Latch_Mid_Btm",
      "translation": [
        3.552713678800501e-15,
        0.0,
        0.0
      ]
    },
    {
      "mesh": 6,
      "name": "Latch_Mid_Btm_MAT_Scifi_Door_5_0"
    },
    {
      "children": [
        33
      ],
      "name": "Latch_Top_Left",
      "rotation": [
        -4.2653015729647687e-17,
        -5.834559478801163e-17,
        0.0,
        1.0
      ],
      "translation": [
        67.13397979736328,
        159.9264678955078,
        4.76837158203125e-07
      ]
    },
    {
      "mesh": 7,
      "name": "Latch_Top_Left_MAT_Scifi_Door_5_0"
    },
    {
      "children": [
        35
      ],
      "name": "Latch_Top_Right",
      "translation": [
        -67.13396453857422,
        159.9264678955078,
        -1.430511474609375e-06
      ]
    },
    {
      "mesh": 8,
      "name": "Latch_Top_Right_MAT_Scifi_Door_5_0"
    },
    {
      "children": [
        37,
        38,
        42
      ],
      "name": "C_Door_Root"
    },
    {
      "name": "C_Door_Upper",
      "translation": [
        4.440892098500626e-16,
        223.3782501220703,
        0.0
      ]
    },
    {
      "children": [
        39,
        40,
        41
      ],
      "name": "C_Door_Left",
      "translation": [
        -91.48639678955078,
        80.89769744873047,
        0.0
      ]
    },
    {
      "name": "C_Door_Left_Latch_Up",
      "translation": [
        80.97077178955078,
        30.694129943847656,
        1.4210854715202004e-14
      ]
    },
    {
      "name": "C_Door_Left_Latch_Down",
      "translation": [
        80.54722595214844,
        -57.40388870239258,
        0.0
      ]
    },
    {
      "name": "C_Door_Upper_Latch_Left",
      "translation": [
        24.142196655273438,
        75.81529998779297,
        7.105427357601002e-15
      ]
    },
    {
      "children": [
        43
      ],
      "name": "C_Door_Right",
      "translation": [
        91.48639678955078,
        80.89769744873047,
        -7.105427357601002e-15
      ]
    },
    {
      "name": "C_Door_Upper_Latch_Right",
      "translation": [
        -24.142242431640625,
        75.81511688232422,
        1.4210854715202004e-14
      ]
    }
  ],
  "samplers": [
    {
      "magFilter": 9729,
      "minFilter": 9987,
      "wrapS": 10497,
      "wrapT": 10497
    }
  ],
  "scene": 0,
  "scenes": [
    {
      "name": "Sketchfab_Scene",
      "nodes": [
        0
      ]
    }
  ],
  "skins": [
    {
      "inverseBindMatrices": 45,
      "joints": [
        5,
        6,
        7,
        8,
        9,
        10,
        11,
        12,
        13
      ],
      "skeleton": 5
    }
  ],
  "textures": [
    {
      "sampler": 0,
      "source": 0
    },
    {
      "sampler": 0,
      "source": 1
    },
    {
      "sampler": 0,
      "source": 2
    },
    {
      "sampler": 0,
      "source": 3
    }
  ]
}
